<svg width="589" height="587" viewBox="0 0 589 587" fill="none" xmlns="http://www.w3.org/2000/svg">
<circle cx="305.584" cy="293.024" r="259.415" fill="#D9D9D9"/>
<path d="M565.493 299.868C567.683 229.436 534.778 167.276 518.052 145L306.164 299.868H565.493Z" fill="#40038D" stroke="#151414" stroke-width="2"/>
<g filter="url(#filter0_d_30_58)">
<mask id="path-3-outside-1_30_58" maskUnits="userSpaceOnUse" x="452.054" y="233.251" width="46.2736" height="32.228" fill="black">
<rect fill="white" x="452.054" y="233.251" width="46.2736" height="32.228"/>
<path d="M453.403 246.381L491.7 234.837L494.141 242.934L463.529 252.162L463.597 252.386L471.738 259.499L464.557 261.664L455.697 253.992L453.403 246.381Z"/>
</mask>
<path d="M453.403 246.381L491.7 234.837L494.141 242.934L463.529 252.162L463.597 252.386L471.738 259.499L464.557 261.664L455.697 253.992L453.403 246.381Z" fill="white" shape-rendering="crispEdges"/>
<path d="M453.403 246.381L453.114 245.424L452.157 245.713L452.445 246.67L453.403 246.381ZM491.7 234.837L492.658 234.548L492.369 233.591L491.412 233.88L491.7 234.837ZM494.141 242.934L494.43 243.892L495.387 243.603L495.099 242.646L494.141 242.934ZM463.529 252.162L463.241 251.204L462.283 251.493L462.572 252.45L463.529 252.162ZM463.597 252.386L462.639 252.675L462.722 252.95L462.939 253.139L463.597 252.386ZM471.738 259.499L472.027 260.457L473.757 259.935L472.396 258.746L471.738 259.499ZM464.557 261.664L463.903 262.42L464.319 262.78L464.846 262.621L464.557 261.664ZM455.697 253.992L454.739 254.281L454.823 254.559L455.042 254.748L455.697 253.992ZM453.691 247.339L491.989 235.794L491.412 233.88L453.114 245.424L453.691 247.339ZM490.743 235.126L493.184 243.223L495.099 242.646L492.658 234.548L490.743 235.126ZM493.853 241.977L463.241 251.204L463.818 253.119L494.43 243.892L493.853 241.977ZM462.572 252.45L462.639 252.675L464.554 252.098L464.487 251.873L462.572 252.45ZM462.939 253.139L471.08 260.252L472.396 258.746L464.255 251.633L462.939 253.139ZM471.45 258.542L464.269 260.706L464.846 262.621L472.027 260.457L471.45 258.542ZM465.212 260.908L456.351 253.236L455.042 254.748L463.903 262.42L465.212 260.908ZM456.654 253.704L454.36 246.093L452.445 246.67L454.739 254.281L456.654 253.704Z" fill="#A1A1A1" fill-opacity="0.5" mask="url(#path-3-outside-1_30_58)"/>
</g>
<path d="M517.581 144.005C477.747 85.8771 414.224 55.3533 387.441 47.3574L306.404 298.671L517.581 144.005Z" fill="#12CAE3" stroke="#151414" stroke-width="2"/>
<g filter="url(#filter1_d_30_58)">
<mask id="path-6-outside-2_30_58" maskUnits="userSpaceOnUse" x="387.014" y="123.767" width="51.4891" height="53.5979" fill="black">
<rect fill="white" x="387.014" y="123.767" width="51.4891" height="53.5979"/>
<path d="M436.112 142.558L432.427 147.412L413.115 149.301C411.442 149.502 409.995 149.728 408.775 149.979C407.544 150.221 406.486 150.571 405.601 151.026C404.707 151.492 403.942 152.145 403.304 152.985C402.595 153.919 402.198 154.884 402.111 155.881C402.016 156.888 402.199 157.853 402.66 158.775C403.113 159.707 403.806 160.528 404.739 161.236C405.714 161.976 406.714 162.425 407.739 162.582C408.764 162.739 409.754 162.599 410.707 162.162C411.66 161.725 412.522 160.999 413.294 159.982L419.687 164.837C418.104 166.921 416.259 168.372 414.15 169.191C412.04 170.009 409.817 170.192 407.478 169.741C405.14 169.29 402.861 168.221 400.642 166.536C398.36 164.804 396.681 162.892 395.605 160.799C394.511 158.71 394.031 156.596 394.166 154.459C394.301 152.322 395.065 150.335 396.459 148.5C397.373 147.297 398.513 146.29 399.879 145.481C401.236 144.663 403.059 143.996 405.348 143.478C407.63 142.971 410.621 142.552 414.321 142.222L422.433 141.196L422.598 140.978L409.22 130.821L413.401 125.314L436.112 142.558Z"/>
</mask>
<path d="M436.112 142.558L432.427 147.412L413.115 149.301C411.442 149.502 409.995 149.728 408.775 149.979C407.544 150.221 406.486 150.571 405.601 151.026C404.707 151.492 403.942 152.145 403.304 152.985C402.595 153.919 402.198 154.884 402.111 155.881C402.016 156.888 402.199 157.853 402.66 158.775C403.113 159.707 403.806 160.528 404.739 161.236C405.714 161.976 406.714 162.425 407.739 162.582C408.764 162.739 409.754 162.599 410.707 162.162C411.66 161.725 412.522 160.999 413.294 159.982L419.687 164.837C418.104 166.921 416.259 168.372 414.15 169.191C412.04 170.009 409.817 170.192 407.478 169.741C405.14 169.29 402.861 168.221 400.642 166.536C398.36 164.804 396.681 162.892 395.605 160.799C394.511 158.71 394.031 156.596 394.166 154.459C394.301 152.322 395.065 150.335 396.459 148.5C397.373 147.297 398.513 146.29 399.879 145.481C401.236 144.663 403.059 143.996 405.348 143.478C407.63 142.971 410.621 142.552 414.321 142.222L422.433 141.196L422.598 140.978L409.22 130.821L413.401 125.314L436.112 142.558Z" fill="white" shape-rendering="crispEdges"/>
<path d="M436.112 142.558L436.909 143.163L437.513 142.367L436.717 141.762L436.112 142.558ZM432.427 147.412L432.525 148.407L432.959 148.364L433.224 148.016L432.427 147.412ZM413.115 149.301L413.017 148.306L413.007 148.307L412.996 148.308L413.115 149.301ZM408.775 149.979L408.968 150.96L408.976 150.958L408.775 149.979ZM405.601 151.026L405.143 150.137L405.138 150.14L405.601 151.026ZM402.111 155.881L403.107 155.974L403.107 155.967L402.111 155.881ZM402.66 158.775L403.56 158.338L403.555 158.328L402.66 158.775ZM410.707 162.162L410.29 161.253L410.707 162.162ZM413.294 159.982L413.899 159.186L413.102 158.581L412.497 159.377L413.294 159.982ZM419.687 164.837L420.484 165.441L421.088 164.645L420.292 164.04L419.687 164.837ZM414.15 169.191L413.788 168.258L414.15 169.191ZM407.478 169.741L407.289 170.723L407.478 169.741ZM395.605 160.799L396.494 160.342L396.491 160.336L395.605 160.799ZM394.166 154.459L395.164 154.522L395.164 154.522L394.166 154.459ZM399.879 145.481L400.389 146.341L400.396 146.337L399.879 145.481ZM405.348 143.478L405.131 142.502L405.128 142.503L405.348 143.478ZM414.321 142.222L414.41 143.218L414.428 143.217L414.446 143.214L414.321 142.222ZM422.433 141.196L422.558 142.188L422.975 142.135L423.229 141.801L422.433 141.196ZM422.598 140.978L423.394 141.583L423.999 140.787L423.203 140.182L422.598 140.978ZM409.22 130.821L408.424 130.216L407.819 131.013L408.616 131.617L409.22 130.821ZM413.401 125.314L414.006 124.518L413.21 123.913L412.605 124.71L413.401 125.314ZM435.316 141.954L431.631 146.807L433.224 148.016L436.909 143.163L435.316 141.954ZM432.33 146.416L413.017 148.306L413.212 150.297L432.525 148.407L432.33 146.416ZM412.996 148.308C411.304 148.512 409.829 148.741 408.574 148.999L408.976 150.958C410.162 150.715 411.58 150.493 413.234 150.294L412.996 148.308ZM408.581 148.998C407.281 149.254 406.13 149.629 405.143 150.137L406.058 151.916C406.842 151.512 407.807 151.189 408.968 150.96L408.581 148.998ZM405.138 150.14C404.108 150.677 403.23 151.429 402.507 152.381L404.1 153.59C404.653 152.862 405.307 152.308 406.063 151.913L405.138 150.14ZM402.507 152.381C401.704 153.438 401.22 154.579 401.115 155.794L403.107 155.967C403.175 155.189 403.486 154.399 404.1 153.59L402.507 152.381ZM401.115 155.787C401.003 156.984 401.223 158.136 401.766 159.222L403.555 158.328C403.176 157.57 403.03 156.792 403.107 155.974L401.115 155.787ZM401.761 159.212C402.291 160.303 403.093 161.242 404.135 162.033L405.344 160.44C404.519 159.814 403.935 159.111 403.56 158.338L401.761 159.212ZM404.135 162.033C405.218 162.855 406.371 163.384 407.588 163.571L407.891 161.594C407.058 161.466 406.21 161.097 405.344 160.44L404.135 162.033ZM407.588 163.571C408.808 163.758 409.995 163.589 411.124 163.071L410.29 161.253C409.512 161.61 408.721 161.721 407.891 161.594L407.588 163.571ZM411.124 163.071C412.255 162.552 413.24 161.706 414.09 160.587L412.497 159.377C411.804 160.291 411.064 160.898 410.29 161.253L411.124 163.071ZM412.689 160.779L419.082 165.633L420.292 164.04L413.899 159.186L412.689 160.779ZM418.891 164.232C417.402 166.192 415.699 167.517 413.788 168.258L414.511 170.123C416.818 169.228 418.807 167.649 420.484 165.441L418.891 164.232ZM413.788 168.258C411.864 169.005 409.832 169.177 407.668 168.759L407.289 170.723C409.802 171.208 412.217 171.013 414.511 170.123L413.788 168.258ZM407.668 168.759C405.504 168.341 403.364 167.348 401.246 165.74L400.037 167.333C402.358 169.095 404.776 170.238 407.289 170.723L407.668 168.759ZM401.246 165.74C399.058 164.079 397.489 162.276 396.494 160.342L394.716 161.257C395.874 163.508 397.662 165.529 400.037 167.333L401.246 165.74ZM396.491 160.336C395.473 158.391 395.042 156.458 395.164 154.522L393.168 154.396C393.02 156.734 393.549 159.028 394.719 161.263L396.491 160.336ZM395.164 154.522C395.286 152.596 395.971 150.796 397.256 149.104L395.663 147.895C394.159 149.875 393.316 152.047 393.168 154.396L395.164 154.522ZM397.256 149.104C398.087 148.01 399.128 147.088 400.389 146.341L399.37 144.62C397.898 145.492 396.658 146.584 395.663 147.895L397.256 149.104ZM400.396 146.337C401.628 145.595 403.338 144.958 405.569 144.453L405.128 142.503C402.779 143.034 400.844 143.732 399.363 144.624L400.396 146.337ZM405.565 144.454C407.788 143.96 410.731 143.546 414.41 143.218L414.232 141.226C410.511 141.558 407.472 141.981 405.131 142.502L405.565 144.454ZM414.446 143.214L422.558 142.188L422.307 140.204L414.195 141.23L414.446 143.214ZM423.229 141.801L423.394 141.583L421.801 140.374L421.636 140.591L423.229 141.801ZM423.203 140.182L409.825 130.024L408.616 131.617L421.993 141.775L423.203 140.182ZM410.017 131.426L414.198 125.919L412.605 124.71L408.424 130.216L410.017 131.426ZM412.797 126.111L435.507 143.355L436.717 141.762L414.006 124.518L412.797 126.111Z" fill="#A1A1A1" fill-opacity="0.5" mask="url(#path-6-outside-2_30_58)"/>
</g>
<path d="M386.33 47.2882C320.336 23.7007 251.198 36.7322 224.878 46.1964L305.236 299.261L386.33 47.2882Z" fill="#FF7900" stroke="#151414" stroke-width="2"/>
<g filter="url(#filter2_d_30_58)">
<mask id="path-9-outside-3_30_58" maskUnits="userSpaceOnUse" x="288.039" y="100.045" width="37.4184" height="46.5844" fill="black">
<rect fill="white" x="288.039" y="100.045" width="37.4184" height="46.5844"/>
<path d="M305.074 102.858C307.981 102.625 310.611 102.916 312.962 103.733C315.302 104.563 317.199 105.809 318.651 107.468C320.092 109.142 320.926 111.139 321.151 113.459L312.663 114.142C312.533 113.172 312.146 112.341 311.503 111.649C310.847 110.97 310.01 110.469 308.991 110.146C307.972 109.823 306.847 109.711 305.614 109.81C304.329 109.914 303.211 110.232 302.261 110.766C301.312 111.299 300.59 111.991 300.097 112.84C299.603 113.69 299.399 114.64 299.483 115.692C299.569 116.756 299.943 117.673 300.606 118.443C301.257 119.226 302.153 119.807 303.293 120.186C304.421 120.565 305.738 120.695 307.244 120.574L310.962 120.274L311.46 126.465L307.742 126.764C306.47 126.867 305.365 127.178 304.427 127.697C303.476 128.218 302.759 128.89 302.277 129.712C301.795 130.548 301.597 131.491 301.681 132.542C301.762 133.542 302.072 134.399 302.613 135.113C303.142 135.841 303.852 136.385 304.743 136.744C305.621 137.105 306.625 137.239 307.754 137.148C308.896 137.057 309.924 136.765 310.838 136.273C311.753 135.795 312.466 135.156 312.977 134.357C313.487 133.559 313.721 132.652 313.679 131.636L321.758 130.986C321.904 133.287 321.411 135.364 320.28 137.219C319.149 139.073 317.546 140.58 315.471 141.74C313.384 142.914 310.978 143.61 308.252 143.829C305.5 144.051 303.053 143.745 300.909 142.911C298.765 142.078 297.053 140.857 295.774 139.249C294.483 137.654 293.76 135.805 293.604 133.702C293.411 131.47 293.956 129.552 295.237 127.947C296.506 126.342 298.24 125.249 300.44 124.667L300.415 124.356C297.452 124.215 295.138 123.376 293.472 121.838C291.795 120.314 290.864 118.312 290.677 115.832C290.482 113.562 290.975 111.491 292.156 109.619C293.325 107.748 295.024 106.214 297.253 105.016C299.482 103.818 302.089 103.099 305.074 102.858Z"/>
</mask>
<path d="M305.074 102.858C307.981 102.625 310.611 102.916 312.962 103.733C315.302 104.563 317.199 105.809 318.651 107.468C320.092 109.142 320.926 111.139 321.151 113.459L312.663 114.142C312.533 113.172 312.146 112.341 311.503 111.649C310.847 110.97 310.01 110.469 308.991 110.146C307.972 109.823 306.847 109.711 305.614 109.81C304.329 109.914 303.211 110.232 302.261 110.766C301.312 111.299 300.59 111.991 300.097 112.84C299.603 113.69 299.399 114.64 299.483 115.692C299.569 116.756 299.943 117.673 300.606 118.443C301.257 119.226 302.153 119.807 303.293 120.186C304.421 120.565 305.738 120.695 307.244 120.574L310.962 120.274L311.46 126.465L307.742 126.764C306.47 126.867 305.365 127.178 304.427 127.697C303.476 128.218 302.759 128.89 302.277 129.712C301.795 130.548 301.597 131.491 301.681 132.542C301.762 133.542 302.072 134.399 302.613 135.113C303.142 135.841 303.852 136.385 304.743 136.744C305.621 137.105 306.625 137.239 307.754 137.148C308.896 137.057 309.924 136.765 310.838 136.273C311.753 135.795 312.466 135.156 312.977 134.357C313.487 133.559 313.721 132.652 313.679 131.636L321.758 130.986C321.904 133.287 321.411 135.364 320.28 137.219C319.149 139.073 317.546 140.58 315.471 141.74C313.384 142.914 310.978 143.61 308.252 143.829C305.5 144.051 303.053 143.745 300.909 142.911C298.765 142.078 297.053 140.857 295.774 139.249C294.483 137.654 293.76 135.805 293.604 133.702C293.411 131.47 293.956 129.552 295.237 127.947C296.506 126.342 298.24 125.249 300.44 124.667L300.415 124.356C297.452 124.215 295.138 123.376 293.472 121.838C291.795 120.314 290.864 118.312 290.677 115.832C290.482 113.562 290.975 111.491 292.156 109.619C293.325 107.748 295.024 106.214 297.253 105.016C299.482 103.818 302.089 103.099 305.074 102.858Z" fill="white" shape-rendering="crispEdges"/>
<path d="M312.962 103.733L313.297 102.79L313.291 102.788L312.962 103.733ZM318.651 107.468L319.409 106.816L319.404 106.81L318.651 107.468ZM321.151 113.459L321.232 114.456L322.245 114.374L322.147 113.362L321.151 113.459ZM312.663 114.142L311.672 114.275L311.798 115.215L312.743 115.139L312.663 114.142ZM311.503 111.649L312.235 110.968L312.229 110.961L312.222 110.954L311.503 111.649ZM308.991 110.146L309.293 109.193L309.293 109.193L308.991 110.146ZM302.261 110.766L302.751 111.637L302.261 110.766ZM300.097 112.84L299.232 112.338L299.232 112.338L300.097 112.84ZM300.606 118.443L301.375 117.804L301.37 117.797L301.364 117.79L300.606 118.443ZM303.293 120.186L303.612 119.238L303.608 119.237L303.293 120.186ZM310.962 120.274L311.959 120.194L311.879 119.197L310.882 119.278L310.962 120.274ZM311.46 126.465L311.54 127.462L312.537 127.382L312.457 126.385L311.46 126.465ZM304.427 127.697L304.907 128.574L304.911 128.572L304.427 127.697ZM302.277 129.712L301.414 129.206L301.41 129.213L302.277 129.712ZM302.613 135.113L303.422 134.525L303.416 134.517L303.41 134.509L302.613 135.113ZM304.743 136.744L305.123 135.819L305.117 135.817L304.743 136.744ZM310.838 136.273L310.375 135.387L310.364 135.393L310.838 136.273ZM312.977 134.357L312.134 133.819L312.134 133.819L312.977 134.357ZM313.679 131.636L313.598 130.639L312.639 130.717L312.679 131.678L313.679 131.636ZM321.758 130.986L322.756 130.923L322.692 129.908L321.678 129.99L321.758 130.986ZM320.28 137.219L319.426 136.698L319.426 136.698L320.28 137.219ZM315.471 141.74L314.983 140.867L314.981 140.868L315.471 141.74ZM300.909 142.911L300.546 143.843L300.909 142.911ZM295.774 139.249L296.557 138.626L296.551 138.619L295.774 139.249ZM293.604 133.702L294.601 133.628L294.6 133.616L293.604 133.702ZM295.237 127.947L296.019 128.571L296.022 128.567L295.237 127.947ZM300.44 124.667L300.696 125.634L301.504 125.42L301.437 124.587L300.44 124.667ZM300.415 124.356L301.412 124.276L301.342 123.399L300.463 123.357L300.415 124.356ZM293.472 121.838L294.151 121.103L294.145 121.098L293.472 121.838ZM290.677 115.832L291.674 115.757L291.674 115.746L290.677 115.832ZM292.156 109.619L293.002 110.153L293.005 110.149L292.156 109.619ZM297.253 105.016L297.727 105.897L297.727 105.897L297.253 105.016ZM305.154 103.855C307.947 103.631 310.434 103.913 312.634 104.677L313.291 102.788C310.787 101.919 308.016 101.619 304.994 101.862L305.154 103.855ZM312.628 104.675C314.827 105.456 316.572 106.612 317.899 108.127L319.404 106.81C317.825 105.006 315.777 103.671 313.297 102.79L312.628 104.675ZM317.894 108.121C319.192 109.629 319.949 111.429 320.156 113.556L322.147 113.362C321.902 110.849 320.992 108.655 319.409 106.816L317.894 108.121ZM321.071 112.462L312.583 113.145L312.743 115.139L321.232 114.456L321.071 112.462ZM313.654 114.009C313.498 112.842 313.025 111.818 312.235 110.968L310.77 112.329C311.268 112.865 311.568 113.503 311.672 114.275L313.654 114.009ZM312.222 110.954C311.436 110.141 310.449 109.559 309.293 109.193L308.689 111.099C309.571 111.379 310.258 111.799 310.783 112.343L312.222 110.954ZM309.293 109.193C308.133 108.825 306.875 108.705 305.533 108.813L305.694 110.807C306.818 110.717 307.812 110.821 308.689 111.099L309.293 109.193ZM305.533 108.813C304.131 108.926 302.868 109.278 301.772 109.894L302.751 111.637C303.554 111.186 304.527 110.901 305.694 110.807L305.533 108.813ZM301.772 109.894C300.683 110.505 299.824 111.318 299.232 112.338L300.961 113.343C301.355 112.664 301.94 112.093 302.751 111.637L301.772 109.894ZM299.232 112.338C298.629 113.377 298.387 114.533 298.487 115.772L300.48 115.612C300.411 114.748 300.578 114.003 300.961 113.343L299.232 112.338ZM298.487 115.772C298.588 117.036 299.04 118.156 299.848 119.095L301.364 117.79C300.847 117.19 300.55 116.476 300.48 115.612L298.487 115.772ZM299.837 119.082C300.627 120.033 301.693 120.708 302.979 121.135L303.608 119.237C302.613 118.906 301.887 118.419 301.375 117.804L299.837 119.082ZM302.975 121.134C304.26 121.566 305.718 121.699 307.324 121.57L307.163 119.577C305.758 119.69 304.582 119.565 303.612 119.238L302.975 121.134ZM307.324 121.57L311.042 121.271L310.882 119.278L307.163 119.577L307.324 121.57ZM309.965 120.355L310.463 126.546L312.457 126.385L311.959 120.194L309.965 120.355ZM311.38 125.469L307.661 125.768L307.822 127.761L311.54 127.462L311.38 125.469ZM307.661 125.768C306.274 125.879 305.026 126.222 303.942 126.823L304.911 128.572C305.703 128.133 306.665 127.854 307.822 127.761L307.661 125.768ZM303.946 126.82C302.859 127.416 302 128.207 301.414 129.206L303.139 130.218C303.518 129.572 304.093 129.02 304.907 128.574L303.946 126.82ZM301.41 129.213C300.818 130.24 300.585 131.389 300.685 132.623L302.678 132.462C302.608 131.593 302.772 130.855 303.143 130.211L301.41 129.213ZM300.685 132.623C300.778 133.789 301.147 134.833 301.816 135.716L303.41 134.509C302.998 133.964 302.745 133.295 302.678 132.462L300.685 132.623ZM301.804 135.7C302.451 136.591 303.316 137.247 304.369 137.671L305.117 135.817C304.388 135.522 303.833 135.091 303.422 134.525L301.804 135.7ZM304.363 137.669C305.412 138.1 306.578 138.246 307.834 138.145L307.674 136.152C306.671 136.232 305.83 136.109 305.123 135.819L304.363 137.669ZM307.834 138.145C309.099 138.043 310.264 137.718 311.312 137.154L310.364 135.393C309.584 135.812 308.692 136.07 307.674 136.152L307.834 138.145ZM311.302 137.16C312.357 136.608 313.206 135.855 313.819 134.896L312.134 133.819C311.726 134.458 311.149 134.982 310.375 135.387L311.302 137.16ZM313.819 134.896C314.448 133.912 314.728 132.799 314.678 131.594L312.679 131.678C312.714 132.504 312.526 133.206 312.134 133.819L313.819 134.896ZM313.759 132.633L321.838 131.983L321.678 129.99L313.598 130.639L313.759 132.633ZM320.76 131.05C320.894 133.158 320.444 135.03 319.426 136.698L321.134 137.739C322.379 135.699 322.914 133.415 322.756 130.923L320.76 131.05ZM319.426 136.698C318.393 138.392 316.923 139.783 314.983 140.867L315.959 142.613C318.17 141.377 319.905 139.754 321.134 137.739L319.426 136.698ZM314.981 140.868C313.036 141.962 310.774 142.623 308.172 142.832L308.332 144.826C311.181 144.597 313.731 143.865 315.961 142.611L314.981 140.868ZM308.172 142.832C305.541 143.044 303.249 142.748 301.271 141.979L300.546 143.843C302.856 144.741 305.46 145.057 308.332 144.826L308.172 142.832ZM301.271 141.979C299.272 141.202 297.713 140.08 296.557 138.626L294.992 139.871C296.393 141.634 298.257 142.954 300.546 143.843L301.271 141.979ZM296.551 138.619C295.393 137.188 294.743 135.534 294.601 133.628L292.607 133.776C292.777 136.076 293.574 138.12 294.997 139.878L296.551 138.619ZM294.6 133.616C294.427 131.615 294.912 129.957 296.019 128.571L294.456 127.323C292.999 129.147 292.395 131.326 292.607 133.788L294.6 133.616ZM296.022 128.567C297.141 127.151 298.68 126.167 300.696 125.634L300.185 123.701C297.8 124.331 295.871 125.533 294.453 127.326L296.022 128.567ZM301.437 124.587L301.412 124.276L299.419 124.436L299.444 124.748L301.437 124.587ZM300.463 123.357C297.661 123.224 295.596 122.438 294.151 121.103L292.794 122.573C294.679 124.314 297.243 125.207 300.368 125.355L300.463 123.357ZM294.145 121.098C292.676 119.763 291.844 118.009 291.674 115.757L289.68 115.907C289.884 118.615 290.914 120.864 292.8 122.578L294.145 121.098ZM291.674 115.746C291.496 113.686 291.94 111.834 293.002 110.153L291.311 109.085C290.009 111.147 289.467 113.437 289.681 115.918L291.674 115.746ZM293.005 110.149C294.068 108.446 295.628 107.025 297.727 105.897L296.78 104.135C294.42 105.403 292.582 107.05 291.308 109.089L293.005 110.149ZM297.727 105.897C299.813 104.775 302.282 104.086 305.154 103.855L304.994 101.862C301.896 102.111 299.15 102.861 296.78 104.135L297.727 105.897Z" fill="#A1A1A1" fill-opacity="0.5" mask="url(#path-9-outside-3_30_58)"/>
</g>
<path d="M223.35 46.1759C155.645 66.8504 106.865 118.85 90.9379 142.266L305.032 297.441L223.35 46.1759Z" fill="#DA0906" stroke="#151414" stroke-width="2"/>
<g filter="url(#filter3_d_30_58)">
<mask id="path-12-outside-4_30_58" maskUnits="userSpaceOnUse" x="181.448" y="117.563" width="52.3551" height="54.3363" fill="black">
<rect fill="white" x="181.448" y="117.563" width="52.3551" height="54.3363"/>
<path d="M213.711 125.166L217.383 130.723L217.954 161.878L213.163 165.044L208.081 157.353L210.916 155.479L210.515 135.776L210.343 135.515L190.544 148.597L186.808 142.943L213.711 125.166ZM193.817 129.884L198.813 137.445L200.308 139.992L215.738 163.343L209.122 167.714L187.07 134.342L193.817 129.884Z"/>
</mask>
<path d="M213.711 125.166L217.383 130.723L217.954 161.878L213.163 165.044L208.081 157.353L210.916 155.479L210.515 135.776L210.343 135.515L190.544 148.597L186.808 142.943L213.711 125.166ZM193.817 129.884L198.813 137.445L200.308 139.992L215.738 163.343L209.122 167.714L187.07 134.342L193.817 129.884Z" fill="white" shape-rendering="crispEdges"/>
<path d="M213.711 125.166L214.546 124.615L213.994 123.78L213.16 124.332L213.711 125.166ZM217.383 130.723L218.383 130.704L218.377 130.414L218.217 130.171L217.383 130.723ZM217.954 161.878L218.505 162.713L218.964 162.41L218.954 161.86L217.954 161.878ZM213.163 165.044L212.329 165.595L212.88 166.43L213.714 165.878L213.163 165.044ZM208.081 157.353L207.53 156.518L206.695 157.07L207.247 157.904L208.081 157.353ZM210.916 155.479L211.468 156.313L211.927 156.01L211.916 155.459L210.916 155.479ZM210.515 135.776L211.515 135.755L211.509 135.466L211.349 135.224L210.515 135.776ZM210.343 135.515L211.177 134.964L210.626 134.129L209.791 134.681L210.343 135.515ZM190.544 148.597L189.71 149.148L190.261 149.983L191.095 149.432L190.544 148.597ZM186.808 142.943L186.256 142.108L185.422 142.66L185.973 143.494L186.808 142.943ZM193.817 129.884L194.651 129.333L194.1 128.498L193.265 129.05L193.817 129.884ZM198.813 137.445L199.675 136.939L199.662 136.916L199.647 136.894L198.813 137.445ZM200.308 139.992L199.446 140.498L199.459 140.521L199.474 140.543L200.308 139.992ZM215.738 163.343L216.289 164.177L217.123 163.626L216.572 162.791L215.738 163.343ZM209.122 167.714L208.288 168.266L208.839 169.1L209.673 168.549L209.122 167.714ZM187.07 134.342L186.519 133.507L185.685 134.059L186.236 134.893L187.07 134.342ZM212.877 125.717L216.549 131.274L218.217 130.171L214.546 124.615L212.877 125.717ZM216.383 130.741L216.954 161.897L218.954 161.86L218.383 130.704L216.383 130.741ZM217.403 161.044L212.612 164.21L213.714 165.878L218.505 162.713L217.403 161.044ZM213.997 164.493L208.915 156.801L207.247 157.904L212.329 165.595L213.997 164.493ZM208.632 158.187L211.468 156.313L210.365 154.645L207.53 156.518L208.632 158.187ZM211.916 155.459L211.515 135.755L209.515 135.796L209.917 155.499L211.916 155.459ZM211.349 135.224L211.177 134.964L209.508 136.066L209.681 136.327L211.349 135.224ZM209.791 134.681L189.993 147.763L191.095 149.432L210.894 136.349L209.791 134.681ZM191.378 148.046L187.642 142.391L185.973 143.494L189.71 149.148L191.378 148.046ZM187.359 143.777L214.262 126L213.16 124.332L186.256 142.108L187.359 143.777ZM192.982 130.435L197.978 137.996L199.647 136.894L194.651 129.333L192.982 130.435ZM197.95 137.951L199.446 140.498L201.171 139.485L199.675 136.939L197.95 137.951ZM199.474 140.543L214.903 163.894L216.572 162.791L201.143 139.44L199.474 140.543ZM215.186 162.508L208.571 166.88L209.673 168.549L216.289 164.177L215.186 162.508ZM209.956 167.163L187.905 133.79L186.236 134.893L208.288 168.266L209.956 167.163ZM187.622 135.176L194.368 130.718L193.265 129.05L186.519 133.507L187.622 135.176Z" fill="#A1A1A1" fill-opacity="0.5" mask="url(#path-12-outside-4_30_58)"/>
</g>
<path d="M90.5273 143.317C47.5831 199.827 38.5248 270.579 39.3636 298.892L305.231 298.749L90.5273 143.317Z" fill="#6E3CCF" stroke="#151414" stroke-width="2"/>
<g filter="url(#filter4_d_30_58)">
<mask id="path-15-outside-5_30_58" maskUnits="userSpaceOnUse" x="109.248" y="222.276" width="50.7393" height="43.641" fill="black">
<rect fill="white" x="109.248" y="222.276" width="50.7393" height="43.641"/>
<path d="M115.581 237.81C116.427 235.182 117.665 232.995 119.294 231.249C120.92 229.516 122.775 228.321 124.86 227.666C126.945 227.01 129.093 227.011 131.302 227.668L128.788 235.476C127.285 235.088 125.889 235.322 124.601 236.18C123.312 237.037 122.413 238.259 121.902 239.845C121.495 241.109 121.414 242.315 121.661 243.461C121.916 244.624 122.457 245.639 123.285 246.508C124.122 247.393 125.197 248.047 126.511 248.47C127.85 248.901 129.119 248.996 130.319 248.753C131.515 248.522 132.557 248.003 133.447 247.195C134.336 246.387 134.993 245.347 135.416 244.075C135.776 242.959 135.895 241.801 135.776 240.6C135.653 239.411 135.288 238.397 134.683 237.559L138.271 230.815L157.768 239.085L150.272 262.36L143.691 260.241L149.049 243.602L139.83 239.545L139.758 239.768C140.484 240.741 140.94 242.003 141.124 243.553C141.309 245.104 141.132 246.715 140.593 248.389C139.855 250.682 138.657 252.553 137 254.003C135.343 255.453 133.405 256.395 131.185 256.829C128.979 257.268 126.657 257.087 124.219 256.289C121.649 255.475 119.56 254.145 117.952 252.301C116.352 250.472 115.328 248.302 114.878 245.791C114.437 243.296 114.671 240.635 115.581 237.81Z"/>
</mask>
<path d="M115.581 237.81C116.427 235.182 117.665 232.995 119.294 231.249C120.92 229.516 122.775 228.321 124.86 227.666C126.945 227.01 129.093 227.011 131.302 227.668L128.788 235.476C127.285 235.088 125.889 235.322 124.601 236.18C123.312 237.037 122.413 238.259 121.902 239.845C121.495 241.109 121.414 242.315 121.661 243.461C121.916 244.624 122.457 245.639 123.285 246.508C124.122 247.393 125.197 248.047 126.511 248.47C127.85 248.901 129.119 248.996 130.319 248.753C131.515 248.522 132.557 248.003 133.447 247.195C134.336 246.387 134.993 245.347 135.416 244.075C135.776 242.959 135.895 241.801 135.776 240.6C135.653 239.411 135.288 238.397 134.683 237.559L138.271 230.815L157.768 239.085L150.272 262.36L143.691 260.241L149.049 243.602L139.83 239.545L139.758 239.768C140.484 240.741 140.94 242.003 141.124 243.553C141.309 245.104 141.132 246.715 140.593 248.389C139.855 250.682 138.657 252.553 137 254.003C135.343 255.453 133.405 256.395 131.185 256.829C128.979 257.268 126.657 257.087 124.219 256.289C121.649 255.475 119.56 254.145 117.952 252.301C116.352 250.472 115.328 248.302 114.878 245.791C114.437 243.296 114.671 240.635 115.581 237.81Z" fill="white" shape-rendering="crispEdges"/>
<path d="M119.294 231.249L118.565 230.565L118.563 230.567L119.294 231.249ZM124.86 227.666L125.16 228.62L124.86 227.666ZM131.302 227.668L132.254 227.975L132.568 227.001L131.587 226.709L131.302 227.668ZM128.788 235.476L128.538 236.444L129.45 236.68L129.739 235.783L128.788 235.476ZM124.601 236.18L125.155 237.012L124.601 236.18ZM121.661 243.461L120.683 243.671L120.684 243.675L121.661 243.461ZM123.285 246.508L124.012 245.821L124.009 245.818L123.285 246.508ZM130.319 248.753L130.13 247.771L130.12 247.773L130.319 248.753ZM133.447 247.195L132.774 246.455L133.447 247.195ZM135.416 244.075L136.365 244.39L136.368 244.381L135.416 244.075ZM135.776 240.6L136.771 240.501L136.771 240.496L135.776 240.6ZM134.683 237.559L133.8 237.09L133.507 237.64L133.872 238.145L134.683 237.559ZM138.271 230.815L138.661 229.894L137.818 229.537L137.388 230.345L138.271 230.815ZM157.768 239.085L158.72 239.391L159 238.521L158.159 238.164L157.768 239.085ZM150.272 262.36L149.965 263.312L150.917 263.619L151.224 262.667L150.272 262.36ZM143.691 260.241L142.739 259.934L142.432 260.886L143.384 261.193L143.691 260.241ZM149.049 243.602L150.001 243.909L150.278 243.05L149.452 242.687L149.049 243.602ZM139.83 239.545L140.232 238.63L139.218 238.184L138.878 239.239L139.83 239.545ZM139.758 239.768L138.806 239.462L138.648 239.953L138.957 240.367L139.758 239.768ZM141.124 243.553L140.131 243.671L140.131 243.671L141.124 243.553ZM137 254.003L137.658 254.755L137 254.003ZM131.185 256.829L130.993 255.848L130.991 255.848L131.185 256.829ZM124.219 256.289L124.53 255.338L124.521 255.335L124.219 256.289ZM117.952 252.301L118.706 251.643L118.705 251.642L117.952 252.301ZM114.878 245.791L113.893 245.965L113.894 245.967L114.878 245.791ZM116.533 238.116C117.341 235.607 118.511 233.555 120.025 231.931L118.563 230.567C116.819 232.436 115.513 234.757 114.629 237.503L116.533 238.116ZM120.024 231.933C121.542 230.314 123.253 229.219 125.16 228.62L124.56 226.712C122.297 227.423 120.297 228.717 118.565 230.565L120.024 231.933ZM125.16 228.62C127.044 228.027 128.988 228.023 131.017 228.627L131.587 226.709C129.198 225.999 126.846 225.993 124.56 226.712L125.16 228.62ZM130.35 227.361L127.836 235.17L129.739 235.783L132.254 227.975L130.35 227.361ZM129.038 234.508C127.261 234.049 125.573 234.332 124.047 235.347L125.155 237.012C126.206 236.313 127.309 236.127 128.538 236.444L129.038 234.508ZM124.047 235.347C122.555 236.34 121.525 237.755 120.95 239.539L122.854 240.152C123.301 238.763 124.07 237.734 125.155 237.012L124.047 235.347ZM120.95 239.539C120.496 240.947 120.395 242.332 120.683 243.671L122.638 243.251C122.434 242.298 122.493 241.272 122.854 240.152L120.95 239.539ZM120.684 243.675C120.978 245.018 121.608 246.198 122.562 247.198L124.009 245.818C123.306 245.081 122.853 244.229 122.638 243.247L120.684 243.675ZM122.559 247.195C123.526 248.218 124.752 248.954 126.205 249.422L126.818 247.518C125.642 247.14 124.719 246.568 124.012 245.821L122.559 247.195ZM126.205 249.422C127.682 249.898 129.126 250.014 130.517 249.733L130.12 247.773C129.112 247.977 128.018 247.905 126.818 247.518L126.205 249.422ZM130.508 249.735C131.881 249.47 133.092 248.869 134.119 247.935L132.774 246.455C132.023 247.138 131.148 247.575 130.13 247.771L130.508 249.735ZM134.119 247.935C135.15 246.999 135.894 245.806 136.365 244.39L134.467 243.759C134.092 244.888 133.523 245.775 132.774 246.455L134.119 247.935ZM136.368 244.381C136.771 243.131 136.904 241.834 136.771 240.501L134.781 240.698C134.887 241.767 134.78 242.787 134.464 243.768L136.368 244.381ZM136.771 240.496C136.632 239.161 136.217 237.974 135.493 236.974L133.872 238.145C134.36 238.82 134.673 239.661 134.782 240.703L136.771 240.496ZM135.566 238.029L139.154 231.285L137.388 230.345L133.8 237.09L135.566 238.029ZM137.88 231.736L157.378 240.005L158.159 238.164L138.661 229.894L137.88 231.736ZM156.816 238.778L149.32 262.054L151.224 262.667L158.72 239.391L156.816 238.778ZM150.579 261.409L143.997 259.289L143.384 261.193L149.965 263.312L150.579 261.409ZM144.643 260.548L150.001 243.909L148.098 243.296L142.739 259.934L144.643 260.548ZM149.452 242.687L140.232 238.63L139.427 240.461L148.647 244.517L149.452 242.687ZM138.878 239.239L138.806 239.462L140.71 240.075L140.782 239.852L138.878 239.239ZM138.957 240.367C139.552 241.164 139.962 242.246 140.131 243.671L142.117 243.435C141.918 241.759 141.416 240.318 140.559 239.17L138.957 240.367ZM140.131 243.671C140.297 245.062 140.141 246.529 139.641 248.082L141.545 248.695C142.122 246.902 142.321 245.145 142.117 243.435L140.131 243.671ZM139.641 248.082C138.953 250.219 137.849 251.931 136.341 253.25L137.658 254.755C139.464 253.175 140.756 251.144 141.545 248.695L139.641 248.082ZM136.341 253.25C134.821 254.581 133.045 255.446 130.993 255.848L131.378 257.811C133.765 257.343 135.865 256.324 137.658 254.755L136.341 253.25ZM130.991 255.848C128.975 256.249 126.828 256.091 124.53 255.338L123.908 257.239C126.485 258.084 128.983 258.286 131.38 257.81L130.991 255.848ZM124.521 255.335C122.108 254.571 120.182 253.336 118.706 251.643L117.198 252.958C118.939 254.955 121.191 256.378 123.917 257.242L124.521 255.335ZM118.705 251.642C117.231 249.957 116.282 247.956 115.862 245.615L113.894 245.967C114.374 248.648 115.474 250.987 117.2 252.959L118.705 251.642ZM115.863 245.617C115.454 243.308 115.664 240.813 116.533 238.116L114.629 237.503C113.678 240.457 113.419 243.284 113.893 245.965L115.863 245.617Z" fill="#A1A1A1" fill-opacity="0.5" mask="url(#path-15-outside-5_30_58)"/>
</g>
<path d="M565.547 300.006C567.231 367.957 533.941 427.671 517.085 449.034L306.671 298.093L565.547 300.006Z" fill="#D107E2" stroke="#151414" stroke-width="2"/>
<g filter="url(#filter5_d_30_58)">
<mask id="path-18-outside-6_30_58" maskUnits="userSpaceOnUse" x="459.12" y="326.268" width="54.3026" height="49.8948" fill="black">
<rect fill="white" x="459.12" y="326.268" width="54.3026" height="49.8948"/>
<path d="M505.592 359.129C504.318 362.238 502.465 364.606 500.035 366.234C497.609 367.85 494.71 368.676 491.337 368.714C487.969 368.739 484.26 367.924 480.21 366.268C476.168 364.629 472.965 362.634 470.602 360.285C468.243 357.924 466.774 355.326 466.195 352.492C465.609 349.641 465.944 346.665 467.202 343.564C468.459 340.463 470.289 338.099 472.69 336.474C475.096 334.836 477.968 333.991 481.305 333.939C484.63 333.882 488.311 334.679 492.348 336.33C496.415 337.979 499.646 339.991 502.04 342.367C504.44 344.731 505.947 347.337 506.563 350.186C507.178 353.035 506.854 356.016 505.592 359.129ZM499.094 356.495C499.955 354.371 499.575 352.243 497.953 350.11C496.331 347.977 493.381 346.05 489.105 344.33C486.293 343.19 483.835 342.531 481.73 342.352C479.629 342.16 477.896 342.399 476.529 343.067C475.167 343.723 474.2 344.757 473.627 346.169C472.771 348.281 473.142 350.398 474.74 352.521C476.338 354.645 479.24 356.566 483.447 358.285C486.294 359.44 488.786 360.12 490.923 360.326C493.052 360.515 494.806 360.278 496.185 359.615C497.552 358.946 498.522 357.906 499.094 356.495Z"/>
</mask>
<path d="M505.592 359.129C504.318 362.238 502.465 364.606 500.035 366.234C497.609 367.85 494.71 368.676 491.337 368.714C487.969 368.739 484.26 367.924 480.21 366.268C476.168 364.629 472.965 362.634 470.602 360.285C468.243 357.924 466.774 355.326 466.195 352.492C465.609 349.641 465.944 346.665 467.202 343.564C468.459 340.463 470.289 338.099 472.69 336.474C475.096 334.836 477.968 333.991 481.305 333.939C484.63 333.882 488.311 334.679 492.348 336.33C496.415 337.979 499.646 339.991 502.04 342.367C504.44 344.731 505.947 347.337 506.563 350.186C507.178 353.035 506.854 356.016 505.592 359.129ZM499.094 356.495C499.955 354.371 499.575 352.243 497.953 350.11C496.331 347.977 493.381 346.05 489.105 344.33C486.293 343.19 483.835 342.531 481.73 342.352C479.629 342.16 477.896 342.399 476.529 343.067C475.167 343.723 474.2 344.757 473.627 346.169C472.771 348.281 473.142 350.398 474.74 352.521C476.338 354.645 479.24 356.566 483.447 358.285C486.294 359.44 488.786 360.12 490.923 360.326C493.052 360.515 494.806 360.278 496.185 359.615C497.552 358.946 498.522 357.906 499.094 356.495Z" fill="white" shape-rendering="crispEdges"/>
<path d="M505.592 359.129L506.517 359.509L506.519 359.505L505.592 359.129ZM500.035 366.234L500.589 367.066L500.592 367.064L500.035 366.234ZM491.337 368.714L491.344 369.714L491.348 369.713L491.337 368.714ZM480.21 366.268L480.589 365.342L480.586 365.341L480.21 366.268ZM470.602 360.285L469.894 360.992L469.897 360.994L470.602 360.285ZM466.195 352.492L467.175 352.292L467.175 352.291L466.195 352.492ZM472.69 336.474L473.251 337.302L473.253 337.3L472.69 336.474ZM481.305 333.939L481.32 334.939L481.322 334.939L481.305 333.939ZM492.348 336.33L491.97 337.256L491.973 337.257L492.348 336.33ZM502.04 342.367L501.336 343.077L501.338 343.08L502.04 342.367ZM506.563 350.186L507.54 349.975L506.563 350.186ZM497.953 350.11L498.749 349.504L497.953 350.11ZM489.105 344.33L488.729 345.257L488.732 345.258L489.105 344.33ZM481.73 342.352L481.639 343.348L481.645 343.348L481.73 342.352ZM476.529 343.067L476.963 343.968L476.968 343.966L476.529 343.067ZM474.74 352.521L473.941 353.123L474.74 352.521ZM483.447 358.285L483.068 359.211L483.071 359.212L483.447 358.285ZM490.923 360.326L490.827 361.322L490.835 361.322L490.923 360.326ZM496.185 359.615L496.619 360.516L496.624 360.513L496.185 359.615ZM504.667 358.75C503.456 361.703 501.72 363.901 499.478 365.403L500.592 367.064C503.21 365.31 505.179 362.773 506.517 359.509L504.667 358.75ZM499.481 365.401C497.24 366.894 494.537 367.678 491.326 367.714L491.348 369.713C494.884 369.674 497.979 368.805 500.589 367.066L499.481 365.401ZM491.329 367.714C488.127 367.738 484.551 366.962 480.589 365.342L479.832 367.193C483.969 368.885 487.811 369.74 491.344 369.714L491.329 367.714ZM480.586 365.341C476.63 363.737 473.552 361.808 471.307 359.576L469.897 360.994C472.378 363.461 475.705 365.52 479.834 367.194L480.586 365.341ZM471.309 359.579C469.067 357.334 467.709 354.906 467.175 352.292L465.215 352.692C465.84 355.746 467.419 358.514 469.894 360.992L471.309 359.579ZM467.175 352.291C466.634 349.661 466.934 346.886 468.129 343.94L466.275 343.188C464.955 346.444 464.584 349.621 465.216 352.694L467.175 352.291ZM468.129 343.94C469.323 340.993 471.038 338.8 473.251 337.302L472.129 335.645C469.54 337.399 467.595 339.932 466.275 343.188L468.129 343.94ZM473.253 337.3C475.475 335.788 478.149 334.988 481.32 334.939L481.289 332.939C477.786 332.994 474.718 333.884 472.127 335.647L473.253 337.3ZM481.322 334.939C484.476 334.885 488.021 335.641 491.97 337.256L492.727 335.404C488.601 333.717 484.783 332.879 481.288 332.939L481.322 334.939ZM491.973 337.257C495.952 338.87 499.059 340.818 501.336 343.077L502.745 341.657C500.232 339.164 496.878 337.088 492.724 335.403L491.973 337.257ZM501.338 343.08C503.621 345.329 505.017 347.767 505.585 350.397L507.54 349.975C506.878 346.908 505.258 344.134 502.742 341.655L501.338 343.08ZM505.585 350.397C506.152 353.021 505.864 355.797 504.665 358.753L506.519 359.505C507.845 356.235 508.204 353.049 507.54 349.975L505.585 350.397ZM500.021 356.87C501.039 354.359 500.542 351.862 498.749 349.504L497.157 350.715C498.608 352.623 498.871 354.383 498.167 356.119L500.021 356.87ZM498.749 349.504C496.964 347.158 493.816 345.147 489.478 343.402L488.732 345.258C492.946 346.953 495.697 348.795 497.157 350.715L498.749 349.504ZM489.48 343.404C486.613 342.241 484.053 341.546 481.814 341.355L481.645 343.348C483.617 343.516 485.974 344.14 488.729 345.257L489.48 343.404ZM481.82 341.356C479.605 341.154 477.673 341.395 476.09 342.169L476.968 343.966C478.119 343.403 479.654 343.167 481.639 343.348L481.82 341.356ZM476.095 342.166C474.507 342.931 473.366 344.153 472.701 345.793L474.554 346.545C475.034 345.361 475.827 344.515 476.963 343.968L476.095 342.166ZM472.701 345.793C471.688 348.29 472.173 350.774 473.941 353.123L475.539 351.92C474.111 350.022 473.854 348.272 474.554 346.545L472.701 345.793ZM473.941 353.123C475.699 355.459 478.799 357.466 483.068 359.211L483.825 357.36C479.681 355.666 476.977 353.83 475.539 351.92L473.941 353.123ZM483.071 359.212C485.973 360.389 488.563 361.103 490.827 361.322L491.019 359.331C489.01 359.137 486.616 358.491 483.822 357.359L483.071 359.212ZM490.835 361.322C493.075 361.521 495.026 361.282 496.619 360.516L495.752 358.713C494.587 359.274 493.029 359.509 491.011 359.33L490.835 361.322ZM496.624 360.513C498.213 359.736 499.356 358.51 500.021 356.87L498.167 356.119C497.687 357.303 496.891 358.156 495.746 358.716L496.624 360.513Z" fill="#A1A1A1" fill-opacity="0.5" mask="url(#path-18-outside-6_30_58)"/>
</g>
<path d="M90.6972 447.64C48.2309 392.817 39.6928 324.506 40.732 297.203L306.133 299.302L90.6972 447.64Z" fill="#ED106A" stroke="#151414" stroke-width="2"/>
<g filter="url(#filter6_d_30_58)">
<mask id="path-21-outside-7_30_58" maskUnits="userSpaceOnUse" x="109.114" y="324.616" width="50.4028" height="42.8482" fill="black">
<rect fill="white" x="109.114" y="324.616" width="50.4028" height="42.8482"/>
<path d="M114.403 351.14C113.963 349.131 113.863 347.118 114.102 345.101C114.344 343.098 115.042 341.192 116.196 339.383C117.35 337.575 119.055 335.962 121.312 334.545C123.571 333.141 126.486 332.037 130.055 331.232C133.335 330.505 136.347 330.22 139.091 330.375C141.852 330.54 144.29 331.111 146.406 332.089C148.524 333.079 150.273 334.44 151.651 336.171C153.042 337.9 154.01 339.971 154.554 342.384C155.142 344.988 155.152 347.401 154.586 349.625C154.032 351.845 153.028 353.754 151.572 355.35C150.12 356.959 148.349 358.133 146.26 358.871L144.425 350.735C145.712 350.111 146.629 349.204 147.174 348.013C147.72 346.822 147.824 345.477 147.486 343.978C146.913 341.438 145.372 339.757 142.864 338.934C140.359 338.124 137.205 338.135 133.401 338.966L133.461 339.233C134.749 339.557 135.911 340.122 136.947 340.93C137.999 341.747 138.884 342.742 139.603 343.914C140.337 345.097 140.864 346.4 141.185 347.822C141.706 350.134 141.624 352.315 140.939 354.365C140.266 356.412 139.101 358.17 137.443 359.638C135.786 361.107 133.737 362.116 131.299 362.666C128.657 363.262 126.168 363.176 123.832 362.408C121.5 361.653 119.501 360.308 117.837 358.374C116.188 356.451 115.044 354.039 114.403 351.14ZM120.872 349.641C121.159 350.911 121.72 351.979 122.556 352.845C123.392 353.711 124.396 354.312 125.566 354.649C126.736 354.986 127.969 355.008 129.265 354.716C130.561 354.423 131.658 353.875 132.558 353.072C133.461 352.281 134.106 351.321 134.492 350.193C134.878 349.065 134.928 347.865 134.641 346.595C134.426 345.643 134.05 344.8 133.51 344.067C132.974 343.347 132.32 342.754 131.547 342.288C130.778 341.834 129.935 341.53 129.019 341.376C128.116 341.22 127.195 341.247 126.255 341.459C124.997 341.743 123.912 342.288 123 343.094C122.09 343.914 121.436 344.889 121.037 346.02C120.641 347.164 120.586 348.371 120.872 349.641Z"/>
</mask>
<path d="M114.403 351.14C113.963 349.131 113.863 347.118 114.102 345.101C114.344 343.098 115.042 341.192 116.196 339.383C117.35 337.575 119.055 335.962 121.312 334.545C123.571 333.141 126.486 332.037 130.055 331.232C133.335 330.505 136.347 330.22 139.091 330.375C141.852 330.54 144.29 331.111 146.406 332.089C148.524 333.079 150.273 334.44 151.651 336.171C153.042 337.9 154.01 339.971 154.554 342.384C155.142 344.988 155.152 347.401 154.586 349.625C154.032 351.845 153.028 353.754 151.572 355.35C150.12 356.959 148.349 358.133 146.26 358.871L144.425 350.735C145.712 350.111 146.629 349.204 147.174 348.013C147.72 346.822 147.824 345.477 147.486 343.978C146.913 341.438 145.372 339.757 142.864 338.934C140.359 338.124 137.205 338.135 133.401 338.966L133.461 339.233C134.749 339.557 135.911 340.122 136.947 340.93C137.999 341.747 138.884 342.742 139.603 343.914C140.337 345.097 140.864 346.4 141.185 347.822C141.706 350.134 141.624 352.315 140.939 354.365C140.266 356.412 139.101 358.17 137.443 359.638C135.786 361.107 133.737 362.116 131.299 362.666C128.657 363.262 126.168 363.176 123.832 362.408C121.5 361.653 119.501 360.308 117.837 358.374C116.188 356.451 115.044 354.039 114.403 351.14ZM120.872 349.641C121.159 350.911 121.72 351.979 122.556 352.845C123.392 353.711 124.396 354.312 125.566 354.649C126.736 354.986 127.969 355.008 129.265 354.716C130.561 354.423 131.658 353.875 132.558 353.072C133.461 352.281 134.106 351.321 134.492 350.193C134.878 349.065 134.928 347.865 134.641 346.595C134.426 345.643 134.05 344.8 133.51 344.067C132.974 343.347 132.32 342.754 131.547 342.288C130.778 341.834 129.935 341.53 129.019 341.376C128.116 341.22 127.195 341.247 126.255 341.459C124.997 341.743 123.912 342.288 123 343.094C122.09 343.914 121.436 344.889 121.037 346.02C120.641 347.164 120.586 348.371 120.872 349.641Z" fill="white" shape-rendering="crispEdges"/>
<path d="M114.403 351.14L113.426 351.354L113.427 351.356L114.403 351.14ZM114.102 345.101L113.109 344.981L113.109 344.984L114.102 345.101ZM116.196 339.383L115.353 338.846L116.196 339.383ZM121.312 334.545L120.784 333.696L120.78 333.699L121.312 334.545ZM130.055 331.232L129.838 330.256L129.835 330.256L130.055 331.232ZM139.091 330.375L139.151 329.377L139.148 329.376L139.091 330.375ZM146.406 332.089L146.829 331.183L146.825 331.181L146.406 332.089ZM151.651 336.171L150.869 336.794L150.872 336.798L151.651 336.171ZM154.586 349.625L153.617 349.378L153.615 349.383L154.586 349.625ZM151.572 355.35L150.833 354.676L150.83 354.68L151.572 355.35ZM146.26 358.871L145.284 359.091L145.532 360.189L146.593 359.814L146.26 358.871ZM144.425 350.735L143.989 349.836L143.275 350.182L143.449 350.955L144.425 350.735ZM142.864 338.934L143.176 337.984L143.172 337.983L142.864 338.934ZM133.401 338.966L133.188 337.989L132.204 338.204L132.426 339.186L133.401 338.966ZM133.461 339.233L132.486 339.453L132.621 340.053L133.218 340.203L133.461 339.233ZM136.947 340.93L136.333 341.718L136.334 341.719L136.947 340.93ZM139.603 343.914L138.75 344.437L138.753 344.442L139.603 343.914ZM140.939 354.365L139.99 354.048L139.989 354.053L140.939 354.365ZM123.832 362.408L124.145 361.458L124.14 361.457L123.832 362.408ZM117.837 358.374L117.078 359.025L117.079 359.027L117.837 358.374ZM122.556 352.845L121.837 353.54L121.837 353.54L122.556 352.845ZM125.566 354.649L125.29 355.61L125.29 355.61L125.566 354.649ZM132.558 353.072L131.899 352.32L131.892 352.326L132.558 353.072ZM134.492 350.193L135.438 350.517L134.492 350.193ZM133.51 344.067L134.316 343.475L134.313 343.47L133.51 344.067ZM131.547 342.288L132.064 341.432L132.055 341.426L131.547 342.288ZM129.019 341.376L128.848 342.362L128.854 342.362L129.019 341.376ZM123 343.094L122.338 342.345L122.331 342.351L123 343.094ZM121.037 346.02L120.094 345.687L120.092 345.693L121.037 346.02ZM115.38 350.926C114.964 349.024 114.869 347.123 115.095 345.219L113.109 344.984C112.857 347.112 112.963 349.237 113.426 351.354L115.38 350.926ZM115.095 345.221C115.318 343.376 115.961 341.612 117.039 339.921L115.353 338.846C114.124 340.772 113.371 342.82 113.109 344.981L115.095 345.221ZM117.039 339.921C118.096 338.264 119.683 336.749 121.843 335.392L120.78 333.699C118.428 335.175 116.603 336.886 115.353 338.846L117.039 339.921ZM121.839 335.395C123.976 334.067 126.777 332.996 130.275 332.207L129.835 330.256C126.194 331.077 123.166 332.216 120.784 333.696L121.839 335.395ZM130.271 332.208C133.48 331.497 136.4 331.224 139.035 331.373L139.148 329.376C136.294 329.215 133.189 329.513 129.838 330.256L130.271 332.208ZM139.032 331.373C141.69 331.532 144.003 332.08 145.986 332.997L146.825 331.181C144.577 330.142 142.013 329.548 139.151 329.377L139.032 331.373ZM145.982 332.995C147.969 333.923 149.592 335.19 150.869 336.794L152.434 335.548C150.954 333.689 149.08 332.235 146.829 331.183L145.982 332.995ZM150.872 336.798C152.157 338.395 153.064 340.322 153.579 342.604L155.53 342.164C154.956 339.619 153.928 337.405 152.43 335.544L150.872 336.798ZM153.579 342.604C154.137 345.079 154.138 347.331 153.617 349.378L155.555 349.872C156.166 347.472 156.146 344.897 155.53 342.164L153.579 342.604ZM153.615 349.383C153.1 351.452 152.17 353.21 150.833 354.676L152.311 356.024C153.885 354.298 154.965 352.238 155.556 349.867L153.615 349.383ZM150.83 354.68C149.492 356.163 147.863 357.244 145.927 357.928L146.593 359.814C148.836 359.021 150.748 357.756 152.315 356.02L150.83 354.68ZM147.235 358.651L145.4 350.515L143.449 350.955L145.284 359.091L147.235 358.651ZM144.861 351.635C146.337 350.92 147.432 349.851 148.084 348.429L146.265 347.596C145.826 348.556 145.088 349.303 143.989 349.836L144.861 351.635ZM148.084 348.429C148.736 347.006 148.839 345.433 148.461 343.758L146.51 344.198C146.809 345.522 146.705 346.638 146.265 347.596L148.084 348.429ZM148.461 343.758C147.81 340.869 146.013 338.914 143.176 337.984L142.553 339.884C144.732 340.599 146.016 342.007 146.51 344.198L148.461 343.758ZM143.172 337.983C140.436 337.098 137.087 337.137 133.188 337.989L133.615 339.943C137.322 339.133 140.282 339.15 142.557 339.886L143.172 337.983ZM132.426 339.186L132.486 339.453L134.437 339.013L134.377 338.746L132.426 339.186ZM133.218 340.203C134.372 340.493 135.407 340.997 136.333 341.718L137.562 340.141C136.415 339.247 135.126 338.62 133.705 338.263L133.218 340.203ZM136.334 341.719C137.287 342.46 138.093 343.363 138.75 344.437L140.455 343.392C139.676 342.12 138.711 341.033 137.561 340.14L136.334 341.719ZM138.753 344.442C139.425 345.525 139.912 346.723 140.209 348.042L142.16 347.602C141.816 346.076 141.248 344.669 140.452 343.387L138.753 344.442ZM140.209 348.042C140.695 350.194 140.613 352.187 139.99 354.048L141.887 354.682C142.636 352.442 142.718 350.074 142.16 347.602L140.209 348.042ZM139.989 354.053C139.373 355.927 138.309 357.535 136.78 358.89L138.106 360.387C139.893 358.804 141.159 356.897 141.889 354.677L139.989 354.053ZM136.78 358.89C135.264 360.233 133.374 361.173 131.079 361.691L131.519 363.642C134.1 363.059 136.307 361.981 138.106 360.387L136.78 358.89ZM131.079 361.691C128.595 362.251 126.291 362.164 124.145 361.458L123.52 363.358C126.045 364.188 128.719 364.273 131.519 363.642L131.079 361.691ZM124.14 361.457C121.989 360.76 120.144 359.523 118.595 357.722L117.079 359.027C118.858 361.094 121.01 362.545 123.524 363.359L124.14 361.457ZM118.596 357.724C117.072 355.945 115.991 353.69 115.38 350.924L113.427 351.356C114.097 354.388 115.305 356.956 117.078 359.025L118.596 357.724ZM119.897 349.861C120.22 351.295 120.863 352.531 121.837 353.54L123.276 352.151C122.577 351.427 122.098 350.528 121.848 349.421L119.897 349.861ZM121.837 353.54C122.796 354.533 123.953 355.225 125.29 355.61L125.842 353.688C124.838 353.399 123.988 352.889 123.276 352.151L121.837 353.54ZM125.29 355.61C126.636 355.997 128.041 356.017 129.485 355.691L129.045 353.74C127.898 353.999 126.837 353.974 125.842 353.688L125.29 355.61ZM129.485 355.691C130.929 355.365 132.185 354.746 133.224 353.818L131.892 352.326C131.132 353.005 130.192 353.481 129.045 353.74L129.485 355.691ZM133.217 353.824C134.251 352.919 134.995 351.812 135.438 350.517L133.546 349.869C133.216 350.831 132.671 351.643 131.899 352.32L133.217 353.824ZM135.438 350.517C135.889 349.198 135.94 347.809 135.617 346.375L133.666 346.815C133.915 347.922 133.866 348.932 133.546 349.869L135.438 350.517ZM135.617 346.375C135.374 345.298 134.943 344.327 134.316 343.475L132.705 344.66C133.156 345.273 133.479 345.987 133.666 346.815L135.617 346.375ZM134.313 343.47C133.699 342.646 132.947 341.965 132.064 341.432L131.031 343.144C131.693 343.544 132.25 344.049 132.708 344.665L134.313 343.47ZM132.055 341.426C131.176 340.908 130.217 340.563 129.185 340.39L128.854 342.362C129.653 342.497 130.379 342.76 131.04 343.149L132.055 341.426ZM129.19 340.391C128.151 340.211 127.097 340.244 126.035 340.484L126.475 342.435C127.293 342.25 128.082 342.229 128.848 342.362L129.19 340.391ZM126.035 340.484C124.623 340.802 123.384 341.421 122.338 342.345L123.662 343.844C124.441 343.155 125.372 342.684 126.475 342.435L126.035 340.484ZM122.331 342.351C121.299 343.28 120.549 344.395 120.094 345.687L121.98 346.353C122.322 345.382 122.881 344.547 123.669 343.838L122.331 342.351ZM120.092 345.693C119.63 347.026 119.573 348.423 119.897 349.861L121.848 349.421C121.599 348.318 121.651 347.302 121.982 346.347L120.092 345.693Z" fill="#A1A1A1" fill-opacity="0.5" mask="url(#path-21-outside-7_30_58)"/>
</g>
<path d="M222.595 542.318C155.157 521.877 106.832 471.36 91.0997 448.657L305.925 300.563L222.595 542.318Z" fill="#07E21D" stroke="#151414" stroke-width="2"/>
<g filter="url(#filter7_d_30_58)">
<mask id="path-24-outside-8_30_58" maskUnits="userSpaceOnUse" x="176.446" y="405.492" width="51.3301" height="51.8498" fill="black">
<rect fill="white" x="176.446" y="405.492" width="51.3301" height="51.8498"/>
<path d="M179.922 438.048L214.447 425.411L214.633 425.211L200.526 412.016L205.249 406.967L225.747 426.138L220.957 431.259L186.299 444.012L179.922 438.048Z"/>
</mask>
<path d="M179.922 438.048L214.447 425.411L214.633 425.211L200.526 412.016L205.249 406.967L225.747 426.138L220.957 431.259L186.299 444.012L179.922 438.048Z" fill="white" shape-rendering="crispEdges"/>
<path d="M179.922 438.048L179.579 437.109L178.052 437.668L179.239 438.778L179.922 438.048ZM214.447 425.411L214.79 426.35L215.014 426.268L215.177 426.094L214.447 425.411ZM214.633 425.211L215.364 425.894L216.047 425.164L215.317 424.481L214.633 425.211ZM200.526 412.016L199.796 411.333L199.113 412.063L199.843 412.747L200.526 412.016ZM205.249 406.967L205.932 406.236L205.202 405.553L204.519 406.284L205.249 406.967ZM225.747 426.138L226.477 426.822L227.16 426.091L226.43 425.408L225.747 426.138ZM220.957 431.259L221.302 432.198L221.525 432.116L221.687 431.942L220.957 431.259ZM186.299 444.012L185.615 444.742L186.065 445.163L186.644 444.95L186.299 444.012ZM180.266 438.987L214.79 426.35L214.103 424.472L179.579 437.109L180.266 438.987ZM215.177 426.094L215.364 425.894L213.903 424.528L213.716 424.728L215.177 426.094ZM215.317 424.481L201.209 411.286L199.843 412.747L213.95 425.941L215.317 424.481ZM201.256 412.699L205.979 407.65L204.519 406.284L199.796 411.333L201.256 412.699ZM204.566 407.697L225.064 426.869L226.43 425.408L205.932 406.236L204.566 407.697ZM225.016 425.455L220.227 430.576L221.687 431.942L226.477 426.822L225.016 425.455ZM220.612 430.321L185.953 443.073L186.644 444.95L221.302 432.198L220.612 430.321ZM186.982 443.281L180.605 437.318L179.239 438.778L185.615 444.742L186.982 443.281Z" fill="#A1A1A1" fill-opacity="0.5" mask="url(#path-24-outside-8_30_58)"/>
</g>
<path d="M385.299 542.447C319.251 564.712 250.327 551.632 224.121 542.309L306.142 298.808L385.299 542.447Z" fill="#DEE207" stroke="#151414" stroke-width="2"/>
<g filter="url(#filter8_d_30_58)">
<mask id="path-27-outside-9_30_58" maskUnits="userSpaceOnUse" x="285.714" y="448.484" width="35.8072" height="45.381" fill="black">
<rect fill="white" x="285.714" y="448.484" width="35.8072" height="45.381"/>
<path d="M304.64 491.696C301.634 491.822 298.94 491.446 296.558 490.568C294.188 489.676 292.304 488.406 290.906 486.757C289.508 485.109 288.763 483.205 288.673 481.045C288.604 479.38 288.917 477.835 289.613 476.412C290.322 474.975 291.314 473.767 292.59 472.788C293.864 471.797 295.31 471.137 296.925 470.809L296.913 470.536C294.762 470.195 292.988 469.233 291.593 467.65C290.197 466.053 289.453 464.162 289.362 461.976C289.276 459.908 289.804 458.041 290.946 456.378C292.088 454.701 293.693 453.357 295.762 452.345C297.844 451.32 300.231 450.751 302.924 450.638C305.617 450.526 308.037 450.894 310.183 451.742C312.343 452.591 314.062 453.802 315.34 455.378C316.617 456.941 317.305 458.749 317.404 460.804C317.483 463.004 316.887 464.951 315.615 466.646C314.344 468.341 312.669 469.447 310.593 469.964L310.604 470.237C312.215 470.43 313.691 470.968 315.031 471.851C316.384 472.719 317.473 473.84 318.299 475.213C319.138 476.573 319.599 478.085 319.681 479.749C319.758 481.909 319.169 483.869 317.913 485.629C316.658 487.389 314.88 488.812 312.579 489.898C310.291 490.971 307.645 491.571 304.64 491.696ZM304.38 485.491C305.72 485.435 306.881 485.145 307.863 484.622C308.844 484.086 309.596 483.377 310.12 482.495C310.656 481.599 310.9 480.585 310.853 479.454C310.804 478.296 310.469 477.287 309.846 476.427C309.223 475.553 308.401 474.884 307.378 474.418C306.354 473.94 305.192 473.728 303.891 473.782C302.603 473.836 301.463 474.144 300.47 474.707C299.476 475.257 298.705 475.993 298.157 476.915C297.622 477.823 297.378 478.857 297.427 480.015C297.474 481.146 297.796 482.136 298.391 482.985C298.987 483.82 299.802 484.464 300.837 484.915C301.872 485.354 303.053 485.546 304.38 485.491ZM303.634 467.635C304.753 467.588 305.739 467.319 306.591 466.827C307.444 466.336 308.101 465.676 308.561 464.849C309.022 464.022 309.23 463.081 309.186 462.027C309.143 460.987 308.857 460.086 308.33 459.326C307.803 458.554 307.101 457.964 306.224 457.557C305.346 457.138 304.335 456.952 303.19 457C302.058 457.047 301.066 457.317 300.213 457.809C299.36 458.287 298.703 458.934 298.242 459.748C297.793 460.549 297.59 461.469 297.634 462.51C297.678 463.564 297.964 464.484 298.492 465.27C299.02 466.056 299.729 466.658 300.62 467.077C301.511 467.496 302.515 467.682 303.634 467.635Z"/>
</mask>
<path d="M304.64 491.696C301.634 491.822 298.94 491.446 296.558 490.568C294.188 489.676 292.304 488.406 290.906 486.757C289.508 485.109 288.763 483.205 288.673 481.045C288.604 479.38 288.917 477.835 289.613 476.412C290.322 474.975 291.314 473.767 292.59 472.788C293.864 471.797 295.31 471.137 296.925 470.809L296.913 470.536C294.762 470.195 292.988 469.233 291.593 467.65C290.197 466.053 289.453 464.162 289.362 461.976C289.276 459.908 289.804 458.041 290.946 456.378C292.088 454.701 293.693 453.357 295.762 452.345C297.844 451.32 300.231 450.751 302.924 450.638C305.617 450.526 308.037 450.894 310.183 451.742C312.343 452.591 314.062 453.802 315.34 455.378C316.617 456.941 317.305 458.749 317.404 460.804C317.483 463.004 316.887 464.951 315.615 466.646C314.344 468.341 312.669 469.447 310.593 469.964L310.604 470.237C312.215 470.43 313.691 470.968 315.031 471.851C316.384 472.719 317.473 473.84 318.299 475.213C319.138 476.573 319.599 478.085 319.681 479.749C319.758 481.909 319.169 483.869 317.913 485.629C316.658 487.389 314.88 488.812 312.579 489.898C310.291 490.971 307.645 491.571 304.64 491.696ZM304.38 485.491C305.72 485.435 306.881 485.145 307.863 484.622C308.844 484.086 309.596 483.377 310.12 482.495C310.656 481.599 310.9 480.585 310.853 479.454C310.804 478.296 310.469 477.287 309.846 476.427C309.223 475.553 308.401 474.884 307.378 474.418C306.354 473.94 305.192 473.728 303.891 473.782C302.603 473.836 301.463 474.144 300.47 474.707C299.476 475.257 298.705 475.993 298.157 476.915C297.622 477.823 297.378 478.857 297.427 480.015C297.474 481.146 297.796 482.136 298.391 482.985C298.987 483.82 299.802 484.464 300.837 484.915C301.872 485.354 303.053 485.546 304.38 485.491ZM303.634 467.635C304.753 467.588 305.739 467.319 306.591 466.827C307.444 466.336 308.101 465.676 308.561 464.849C309.022 464.022 309.23 463.081 309.186 462.027C309.143 460.987 308.857 460.086 308.33 459.326C307.803 458.554 307.101 457.964 306.224 457.557C305.346 457.138 304.335 456.952 303.19 457C302.058 457.047 301.066 457.317 300.213 457.809C299.36 458.287 298.703 458.934 298.242 459.748C297.793 460.549 297.59 461.469 297.634 462.51C297.678 463.564 297.964 464.484 298.492 465.27C299.02 466.056 299.729 466.658 300.62 467.077C301.511 467.496 302.515 467.682 303.634 467.635Z" fill="white" shape-rendering="crispEdges"/>
<path d="M296.558 490.568L296.206 491.504L296.212 491.506L296.558 490.568ZM290.906 486.757L290.143 487.404L290.906 486.757ZM289.613 476.412L288.716 475.969L288.715 475.972L289.613 476.412ZM292.59 472.788L293.198 473.582L293.204 473.578L292.59 472.788ZM296.925 470.809L297.124 471.789L297.96 471.619L297.924 470.767L296.925 470.809ZM296.913 470.536L297.913 470.494L297.878 469.676L297.07 469.548L296.913 470.536ZM291.593 467.65L290.84 468.308L290.843 468.311L291.593 467.65ZM290.946 456.378L291.77 456.944L291.773 456.941L290.946 456.378ZM295.762 452.345L296.202 453.243L296.204 453.242L295.762 452.345ZM310.183 451.742L309.816 452.672L309.818 452.673L310.183 451.742ZM315.34 455.378L314.563 456.008L314.565 456.011L315.34 455.378ZM317.404 460.804L318.403 460.769L318.403 460.756L317.404 460.804ZM315.615 466.646L314.815 466.046L315.615 466.646ZM310.593 469.964L310.351 468.994L309.56 469.191L309.594 470.006L310.593 469.964ZM310.604 470.237L309.605 470.279L309.641 471.129L310.485 471.23L310.604 470.237ZM315.031 471.851L314.481 472.686L314.491 472.692L315.031 471.851ZM318.299 475.213L317.442 475.729L317.448 475.738L318.299 475.213ZM319.681 479.749L320.681 479.714L320.68 479.7L319.681 479.749ZM317.913 485.629L317.099 485.048L317.913 485.629ZM312.579 489.898L313.004 490.804L313.006 490.803L312.579 489.898ZM307.863 484.622L308.333 485.504L308.342 485.499L307.863 484.622ZM310.12 482.495L309.261 481.981L309.26 481.984L310.12 482.495ZM309.846 476.427L309.032 477.007L309.036 477.013L309.846 476.427ZM307.378 474.418L306.954 475.324L306.963 475.329L307.378 474.418ZM300.47 474.707L300.954 475.582L300.963 475.577L300.47 474.707ZM298.157 476.915L297.298 476.404L297.296 476.407L298.157 476.915ZM298.391 482.985L297.573 483.559L297.577 483.565L298.391 482.985ZM300.837 484.915L300.437 485.832L300.447 485.836L300.837 484.915ZM306.591 466.827L306.092 465.961L306.591 466.827ZM308.561 464.849L307.688 464.362L307.688 464.362L308.561 464.849ZM308.33 459.326L307.504 459.89L307.509 459.896L308.33 459.326ZM306.224 457.557L305.792 458.46L305.803 458.465L306.224 457.557ZM300.213 457.809L300.703 458.681L300.713 458.675L300.213 457.809ZM298.242 459.748L297.371 459.255L297.369 459.259L298.242 459.748ZM298.492 465.27L297.662 465.827L298.492 465.27ZM300.62 467.077L301.046 466.172L301.046 466.172L300.62 467.077ZM304.598 490.697C301.701 490.818 299.142 490.454 296.904 489.629L296.212 491.506C298.739 492.437 301.568 492.825 304.681 492.695L304.598 490.697ZM296.91 489.632C294.672 488.79 292.939 487.609 291.668 486.111L290.143 487.404C291.669 489.203 293.704 490.563 296.206 491.504L296.91 489.632ZM291.668 486.111C290.414 484.632 289.753 482.94 289.672 481.003L287.674 481.087C287.774 483.469 288.601 485.586 290.143 487.404L291.668 486.111ZM289.672 481.003C289.609 479.495 289.892 478.117 290.512 476.851L288.715 475.972C287.942 477.553 287.598 479.264 287.674 481.087L289.672 481.003ZM290.51 476.854C291.151 475.555 292.044 474.467 293.198 473.582L291.981 471.995C290.584 473.067 289.493 474.394 288.716 475.969L290.51 476.854ZM293.204 473.578C294.354 472.683 295.657 472.087 297.124 471.789L296.726 469.829C294.963 470.187 293.375 470.911 291.976 471.999L293.204 473.578ZM297.924 470.767L297.913 470.494L295.914 470.577L295.926 470.85L297.924 470.767ZM297.07 469.548C295.14 469.243 293.58 468.392 292.343 466.989L290.843 468.311C292.397 470.075 294.384 471.148 296.757 471.523L297.07 469.548ZM292.346 466.991C291.105 465.572 290.443 463.9 290.361 461.934L288.363 462.018C288.463 464.423 289.289 466.534 290.84 468.308L292.346 466.991ZM290.361 461.934C290.284 460.076 290.754 458.424 291.77 456.944L290.122 455.812C288.853 457.659 288.268 459.739 288.363 462.018L290.361 461.934ZM291.773 456.941C292.804 455.426 294.267 454.189 296.202 453.243L295.323 451.447C293.12 452.524 291.372 453.976 290.12 455.815L291.773 456.941ZM296.204 453.242C298.142 452.287 300.389 451.745 302.966 451.637L302.882 449.639C300.073 449.757 297.545 450.352 295.321 451.448L296.204 453.242ZM302.966 451.637C305.542 451.53 307.819 451.883 309.816 452.672L310.551 450.813C308.254 449.905 305.692 449.522 302.882 449.639L302.966 451.637ZM309.818 452.673C311.84 453.467 313.409 454.585 314.563 456.008L316.116 454.748C314.715 453.02 312.846 451.714 310.549 450.812L309.818 452.673ZM314.565 456.011C315.704 457.404 316.316 459.007 316.405 460.852L318.403 460.756C318.294 458.492 317.53 456.477 316.114 454.745L314.565 456.011ZM316.405 460.84C316.476 462.82 315.944 464.541 314.815 466.046L316.415 467.246C317.829 465.36 318.49 463.187 318.403 460.769L316.405 460.84ZM314.815 466.046C313.683 467.555 312.207 468.532 310.351 468.994L310.834 470.934C313.132 470.363 315.004 469.127 316.415 467.246L314.815 466.046ZM309.594 470.006L309.605 470.279L311.603 470.195L311.592 469.922L309.594 470.006ZM310.485 471.23C311.944 471.405 313.272 471.89 314.481 472.686L315.581 471.015C314.11 470.047 312.487 469.456 310.723 469.244L310.485 471.23ZM314.491 472.692C315.715 473.478 316.696 474.488 317.442 475.729L319.156 474.698C318.25 473.193 317.053 471.961 315.571 471.009L314.491 472.692ZM317.448 475.738C318.194 476.948 318.608 478.295 318.682 479.799L320.68 479.7C320.589 477.874 320.081 476.197 319.15 474.688L317.448 475.738ZM318.682 479.785C318.751 481.725 318.227 483.468 317.099 485.048L318.727 486.21C320.111 484.271 320.766 482.094 320.681 479.714L318.682 479.785ZM317.099 485.048C315.959 486.646 314.325 487.968 312.152 488.994L313.006 490.803C315.434 489.656 317.356 488.131 318.727 486.21L317.099 485.048ZM312.155 488.993C310.007 490 307.495 490.576 304.598 490.697L304.681 492.695C307.794 492.565 310.575 491.943 313.004 490.804L312.155 488.993ZM304.422 486.49C305.881 486.429 307.195 486.111 308.333 485.504L307.392 483.739C306.567 484.179 305.559 484.441 304.338 484.492L304.422 486.49ZM308.342 485.499C309.466 484.885 310.356 484.055 310.979 483.005L309.26 481.984C308.836 482.698 308.221 483.286 307.383 483.744L308.342 485.499ZM310.978 483.008C311.622 481.931 311.906 480.721 311.852 479.412L309.853 479.495C309.893 480.45 309.689 481.267 309.261 481.981L310.978 483.008ZM311.852 479.412C311.796 478.077 311.405 476.874 310.657 475.84L309.036 477.013C309.533 477.699 309.812 478.515 309.853 479.495L311.852 479.412ZM310.661 475.846C309.931 474.823 308.967 474.043 307.792 473.508L306.963 475.329C307.834 475.725 308.516 476.284 309.032 477.007L310.661 475.846ZM307.801 473.513C306.612 472.956 305.286 472.723 303.849 472.783L303.933 474.781C305.098 474.733 306.097 474.923 306.954 475.324L307.801 473.513ZM303.849 472.783C302.423 472.843 301.125 473.186 299.977 473.837L300.963 475.577C301.801 475.102 302.783 474.829 303.933 474.781L303.849 472.783ZM299.985 473.832C298.846 474.463 297.942 475.32 297.298 476.404L299.017 477.426C299.469 476.665 300.106 476.051 300.954 475.582L299.985 473.832ZM297.296 476.407C296.653 477.498 296.372 478.726 296.428 480.056L298.426 479.973C298.385 478.988 298.591 478.149 299.019 477.423L297.296 476.407ZM296.428 480.056C296.482 481.361 296.857 482.54 297.573 483.559L299.21 482.41C298.734 481.733 298.466 480.932 298.426 479.973L296.428 480.056ZM297.577 483.565C298.288 484.562 299.253 485.315 300.437 485.832L301.238 483.999C300.351 483.612 299.686 483.077 299.206 482.404L297.577 483.565ZM300.447 485.836C301.641 486.343 302.974 486.55 304.422 486.49L304.338 484.492C303.133 484.542 302.104 484.366 301.228 483.995L300.447 485.836ZM303.676 468.634C304.933 468.582 306.08 468.277 307.091 467.694L306.092 465.961C305.397 466.362 304.573 466.595 303.592 466.636L303.676 468.634ZM307.091 467.694C308.094 467.115 308.883 466.327 309.435 465.335L307.688 464.362C307.318 465.025 306.794 465.556 306.092 465.961L307.091 467.694ZM309.435 465.335C309.995 464.329 310.236 463.202 310.185 461.986L308.187 462.069C308.224 462.96 308.048 463.714 307.688 464.362L309.435 465.335ZM310.185 461.986C310.135 460.78 309.8 459.691 309.152 458.757L307.509 459.896C307.914 460.481 308.15 461.193 308.187 462.069L310.185 461.986ZM309.156 458.763C308.524 457.836 307.679 457.13 306.644 456.65L305.803 458.465C306.522 458.798 307.082 459.271 307.504 459.89L309.156 458.763ZM306.655 456.655C305.606 456.154 304.427 455.947 303.148 456.001L303.232 457.999C304.242 457.957 305.086 458.122 305.792 458.46L306.655 456.655ZM303.148 456.001C301.88 456.054 300.726 456.359 299.714 456.942L300.713 458.675C301.406 458.275 302.236 458.041 303.232 457.999L303.148 456.001ZM299.724 456.936C298.719 457.5 297.927 458.275 297.371 459.255L299.112 460.241C299.479 459.593 300.001 459.074 300.702 458.681L299.724 456.936ZM297.369 459.259C296.818 460.242 296.584 461.352 296.635 462.552L298.633 462.468C298.596 461.587 298.768 460.855 299.114 460.237L297.369 459.259ZM296.635 462.552C296.685 463.768 297.019 464.871 297.662 465.827L299.322 464.712C298.908 464.096 298.67 463.359 298.633 462.468L296.635 462.552ZM297.662 465.827C298.295 466.77 299.147 467.489 300.194 467.982L301.046 466.172C300.312 465.827 299.745 465.342 299.322 464.712L297.662 465.827ZM300.194 467.982C301.25 468.478 302.418 468.687 303.676 468.634L303.592 466.636C302.612 466.677 301.771 466.513 301.046 466.172L300.194 467.982Z" fill="#A1A1A1" fill-opacity="0.5" mask="url(#path-27-outside-9_30_58)"/>
</g>
<path d="M517.009 450.127C476.831 505.9 413.2 534.874 386.408 542.389L307.303 299.386L517.009 450.127Z" fill="#0C7EE5" stroke="#151414" stroke-width="2"/>
<g filter="url(#filter9_d_30_58)">
<mask id="path-30-outside-10_30_58" maskUnits="userSpaceOnUse" x="379.831" y="416.475" width="51.0124" height="54.9452" fill="black">
<rect fill="white" x="379.831" y="416.475" width="51.0124" height="54.9452"/>
<path d="M395.172 426.09C396.974 425.097 398.874 424.444 400.872 424.131C402.881 423.812 404.906 423.952 406.947 424.552C408.998 425.146 411.01 426.328 412.98 428.096C414.956 429.847 416.823 432.305 418.581 435.469C420.221 438.446 421.349 441.288 421.964 443.997C422.584 446.688 422.722 449.191 422.378 451.507C422.033 453.822 421.218 455.892 419.933 457.715C418.642 459.526 416.913 461.029 414.746 462.223C412.408 463.511 410.096 464.198 407.809 464.284C405.516 464.358 403.391 463.915 401.436 462.956C399.485 461.979 397.856 460.573 396.547 458.737L403.851 454.712C404.84 455.833 405.985 456.495 407.287 456.699C408.583 456.892 409.904 456.618 411.249 455.877C413.53 454.62 414.717 452.673 414.81 450.035C414.896 447.385 413.99 444.324 412.091 440.851L411.852 440.983C411.893 442.298 411.673 443.572 411.191 444.803C410.704 446.023 409.994 447.15 409.062 448.184C408.142 449.211 407.037 450.08 405.749 450.79C403.684 451.928 401.576 452.458 399.422 452.381C397.269 452.303 395.256 451.673 393.385 450.489C391.513 449.305 389.978 447.624 388.777 445.446C387.472 443.103 386.86 440.711 386.943 438.272C387.027 435.833 387.763 433.554 389.153 431.435C390.548 429.299 392.554 427.517 395.172 426.09ZM398.428 431.877C397.276 432.512 396.4 433.351 395.801 434.395C395.213 435.433 394.911 436.558 394.896 437.771C394.891 438.977 395.209 440.147 395.849 441.282C396.484 442.433 397.306 443.333 398.317 443.98C399.333 444.61 400.431 444.956 401.611 445.02C402.795 445.066 403.958 444.775 405.098 444.146C405.954 443.675 406.658 443.079 407.212 442.357C407.766 441.636 408.157 440.848 408.385 439.994C408.619 439.122 408.685 438.231 408.585 437.32C408.484 436.409 408.204 435.537 407.746 434.704C407.125 433.605 406.303 432.734 405.281 432.093C404.259 431.452 403.143 431.1 401.935 431.038C400.726 430.976 399.557 431.255 398.428 431.877Z"/>
</mask>
<path d="M395.172 426.09C396.974 425.097 398.874 424.444 400.872 424.131C402.881 423.812 404.906 423.952 406.947 424.552C408.998 425.146 411.01 426.328 412.98 428.096C414.956 429.847 416.823 432.305 418.581 435.469C420.221 438.446 421.349 441.288 421.964 443.997C422.584 446.688 422.722 449.191 422.378 451.507C422.033 453.822 421.218 455.892 419.933 457.715C418.642 459.526 416.913 461.029 414.746 462.223C412.408 463.511 410.096 464.198 407.809 464.284C405.516 464.358 403.391 463.915 401.436 462.956C399.485 461.979 397.856 460.573 396.547 458.737L403.851 454.712C404.84 455.833 405.985 456.495 407.287 456.699C408.583 456.892 409.904 456.618 411.249 455.877C413.53 454.62 414.717 452.673 414.81 450.035C414.896 447.385 413.99 444.324 412.091 440.851L411.852 440.983C411.893 442.298 411.673 443.572 411.191 444.803C410.704 446.023 409.994 447.15 409.062 448.184C408.142 449.211 407.037 450.08 405.749 450.79C403.684 451.928 401.576 452.458 399.422 452.381C397.269 452.303 395.256 451.673 393.385 450.489C391.513 449.305 389.978 447.624 388.777 445.446C387.472 443.103 386.86 440.711 386.943 438.272C387.027 435.833 387.763 433.554 389.153 431.435C390.548 429.299 392.554 427.517 395.172 426.09ZM398.428 431.877C397.276 432.512 396.4 433.351 395.801 434.395C395.213 435.433 394.911 436.558 394.896 437.771C394.891 438.977 395.209 440.147 395.849 441.282C396.484 442.433 397.306 443.333 398.317 443.98C399.333 444.61 400.431 444.956 401.611 445.02C402.795 445.066 403.958 444.775 405.098 444.146C405.954 443.675 406.658 443.079 407.212 442.357C407.766 441.636 408.157 440.848 408.385 439.994C408.619 439.122 408.685 438.231 408.585 437.32C408.484 436.409 408.204 435.537 407.746 434.704C407.125 433.605 406.303 432.734 405.281 432.093C404.259 431.452 403.143 431.1 401.935 431.038C400.726 430.976 399.557 431.255 398.428 431.877Z" fill="white" shape-rendering="crispEdges"/>
<path d="M395.172 426.09L395.651 426.968L395.654 426.965L395.172 426.09ZM400.872 424.131L401.027 425.119L401.029 425.119L400.872 424.131ZM406.947 424.552L406.664 425.512L406.668 425.513L406.947 424.552ZM412.98 428.096L412.312 428.841L412.317 428.845L412.98 428.096ZM418.581 435.469L419.457 434.986L419.455 434.983L418.581 435.469ZM421.964 443.997L420.989 444.218L420.989 444.221L421.964 443.997ZM422.378 451.507L423.367 451.654L423.367 451.654L422.378 451.507ZM419.933 457.715L420.748 458.295L420.751 458.291L419.933 457.715ZM407.809 464.284L407.841 465.283L407.846 465.283L407.809 464.284ZM401.436 462.956L400.988 463.85L400.995 463.854L401.436 462.956ZM396.547 458.737L396.064 457.861L395.08 458.403L395.732 459.317L396.547 458.737ZM403.851 454.712L404.601 454.051L404.07 453.45L403.369 453.837L403.851 454.712ZM407.287 456.699L407.132 457.687L407.14 457.688L407.287 456.699ZM414.81 450.035L415.809 450.07L415.809 450.067L414.81 450.035ZM412.091 440.851L412.969 440.371L412.487 439.491L411.609 439.975L412.091 440.851ZM411.852 440.983L411.369 440.107L410.833 440.402L410.852 441.014L411.852 440.983ZM411.191 444.803L412.12 445.174L412.123 445.167L411.191 444.803ZM409.062 448.184L408.32 447.514L408.318 447.517L409.062 448.184ZM399.422 452.381L399.386 453.38L399.422 452.381ZM393.385 450.489L392.85 451.334L392.85 451.334L393.385 450.489ZM388.777 445.446L389.653 444.963L389.651 444.959L388.777 445.446ZM386.943 438.272L387.943 438.306L387.943 438.306L386.943 438.272ZM389.153 431.435L389.989 431.984L389.99 431.982L389.153 431.435ZM395.801 434.395L394.934 433.897L394.931 433.902L395.801 434.395ZM394.896 437.771L393.896 437.758L393.896 437.767L394.896 437.771ZM395.849 441.282L396.725 440.799L396.72 440.79L395.849 441.282ZM398.317 443.98L397.778 444.822L397.784 444.826L397.79 444.83L398.317 443.98ZM401.611 445.02L401.557 446.019L401.564 446.019L401.572 446.019L401.611 445.02ZM407.212 442.357L406.419 441.748L407.212 442.357ZM408.385 439.994L407.419 439.735L407.419 439.736L408.385 439.994ZM408.585 437.32L409.578 437.21L408.585 437.32ZM407.746 434.704L408.622 434.222L408.617 434.213L407.746 434.704ZM405.281 432.093L405.812 431.246L405.281 432.093ZM401.935 431.038L401.986 430.039L401.986 430.039L401.935 431.038ZM395.654 426.965C397.356 426.028 399.145 425.413 401.027 425.119L400.717 423.143C398.602 423.474 396.591 424.166 394.689 425.214L395.654 426.965ZM401.029 425.119C402.885 424.824 404.76 424.951 406.664 425.512L407.229 423.593C405.053 422.953 402.878 422.8 400.715 423.143L401.029 425.119ZM406.668 425.513C408.545 426.056 410.427 427.149 412.312 428.841L413.648 427.352C411.592 425.507 409.451 424.237 407.225 423.592L406.668 425.513ZM412.317 428.845C414.183 430.499 415.985 432.855 417.707 435.955L419.455 434.983C417.661 431.754 415.729 429.196 413.643 427.348L412.317 428.845ZM417.705 435.952C419.31 438.864 420.398 441.619 420.989 444.218L422.939 443.775C422.299 440.958 421.132 438.027 419.457 434.986L417.705 435.952ZM420.989 444.221C421.587 446.812 421.712 449.188 421.389 451.36L423.367 451.654C423.733 449.194 423.582 446.563 422.938 443.772L420.989 444.221ZM421.389 451.36C421.066 453.529 420.307 455.45 419.116 457.139L420.751 458.291C422.13 456.334 423 454.116 423.367 451.654L421.389 451.36ZM419.119 457.134C417.924 458.811 416.314 460.217 414.264 461.347L415.229 463.099C417.512 461.841 419.36 460.242 420.748 458.295L419.119 457.134ZM414.264 461.347C412.04 462.572 409.878 463.205 407.772 463.284L407.846 465.283C410.313 465.191 412.777 464.45 415.229 463.099L414.264 461.347ZM407.777 463.284C405.638 463.353 403.677 462.942 401.876 462.058L400.995 463.854C403.106 464.889 405.394 465.362 407.841 465.283L407.777 463.284ZM401.884 462.062C400.084 461.161 398.578 459.864 397.361 458.156L395.732 459.317C397.133 461.282 398.887 462.798 400.988 463.85L401.884 462.062ZM397.029 459.613L404.334 455.588L403.369 453.837L396.064 457.861L397.029 459.613ZM403.101 455.374C404.223 456.644 405.57 457.442 407.132 457.687L407.442 455.711C406.401 455.548 405.457 455.021 404.601 454.051L403.101 455.374ZM407.14 457.688C408.688 457.919 410.229 457.581 411.732 456.752L410.767 455.001C409.579 455.655 408.478 455.866 407.435 455.71L407.14 457.688ZM411.732 456.752C414.326 455.323 415.704 453.053 415.809 450.07L413.81 450C413.73 452.292 412.734 453.917 410.767 455.001L411.732 456.752ZM415.809 450.067C415.904 447.172 414.914 443.929 412.969 440.371L411.214 441.331C413.066 444.719 413.889 447.599 413.81 450.002L415.809 450.067ZM411.609 439.975L411.369 440.107L412.334 441.859L412.574 441.727L411.609 439.975ZM410.852 441.014C410.889 442.194 410.692 443.333 410.26 444.439L412.123 445.167C412.653 443.811 412.896 442.403 412.851 440.952L410.852 441.014ZM410.263 444.432C409.822 445.536 409.177 446.563 408.32 447.514L409.805 448.853C410.811 447.737 411.586 446.51 412.12 445.174L410.263 444.432ZM408.318 447.517C407.477 448.455 406.463 449.255 405.266 449.914L406.231 451.666C407.612 450.905 408.807 449.968 409.807 448.851L408.318 447.517ZM405.266 449.914C403.345 450.973 401.414 451.451 399.458 451.381L399.386 453.38C401.737 453.464 404.024 452.882 406.231 451.666L405.266 449.914ZM399.458 451.381C397.486 451.311 395.645 450.736 393.919 449.644L392.85 451.334C394.867 452.61 397.051 453.296 399.386 453.38L399.458 451.381ZM393.919 449.644C392.207 448.561 390.782 447.012 389.653 444.963L387.902 445.928C389.173 448.236 390.819 450.049 392.85 451.334L393.919 449.644ZM389.651 444.959C388.425 442.758 387.866 440.546 387.943 438.306L385.944 438.238C385.854 440.877 386.519 443.447 387.904 445.932L389.651 444.959ZM387.943 438.306C388.019 436.057 388.696 433.955 389.989 431.984L388.317 430.887C386.83 433.152 386.034 435.608 385.944 438.238L387.943 438.306ZM389.99 431.982C391.28 430.006 393.153 428.329 395.651 426.968L394.693 425.212C391.955 426.705 389.815 428.592 388.315 430.889L389.99 431.982ZM397.945 431.002C396.648 431.716 395.633 432.68 394.934 433.897L396.668 434.893C397.168 434.023 397.904 433.308 398.91 432.753L397.945 431.002ZM394.931 433.902C394.259 435.089 393.914 436.38 393.896 437.758L395.896 437.784C395.909 436.736 396.168 435.777 396.671 434.888L394.931 433.902ZM393.896 437.767C393.891 439.161 394.26 440.5 394.978 441.773L396.72 440.79C396.158 439.795 395.892 438.794 395.896 437.774L393.896 437.767ZM394.973 441.764C395.68 443.048 396.614 444.077 397.778 444.822L398.856 443.138C397.999 442.589 397.287 441.819 396.725 440.799L394.973 441.764ZM397.79 444.83C398.947 445.547 400.207 445.946 401.557 446.019L401.664 444.022C400.654 443.967 399.719 443.673 398.844 443.13L397.79 444.83ZM401.572 446.019C402.956 446.073 404.297 445.729 405.581 445.022L404.616 443.27C403.619 443.82 402.635 444.059 401.649 444.021L401.572 446.019ZM405.581 445.022C406.548 444.489 407.362 443.805 408.006 442.966L406.419 441.748C405.955 442.352 405.359 442.861 404.616 443.27L405.581 445.022ZM408.006 442.966C408.637 442.143 409.089 441.237 409.352 440.252L407.419 439.736C407.226 440.459 406.895 441.128 406.419 441.748L408.006 442.966ZM409.351 440.252C409.617 439.259 409.692 438.242 409.578 437.21L407.591 437.429C407.678 438.219 407.62 438.985 407.419 439.735L409.351 440.252ZM409.578 437.21C409.463 436.163 409.141 435.165 408.622 434.222L406.87 435.187C407.267 435.909 407.505 436.654 407.591 437.429L409.578 437.21ZM408.617 434.213C407.918 432.975 406.982 431.98 405.812 431.246L404.75 432.94C405.624 433.489 406.332 434.234 406.875 435.196L408.617 434.213ZM405.812 431.246C404.645 430.514 403.365 430.11 401.986 430.039L401.883 432.037C402.922 432.09 403.873 432.39 404.75 432.94L405.812 431.246ZM401.986 430.039C400.579 429.967 399.226 430.296 397.945 431.002L398.91 432.753C399.887 432.215 400.872 431.984 401.883 432.037L401.986 430.039Z" fill="#A1A1A1" fill-opacity="0.5" mask="url(#path-30-outside-10_30_58)"/>
</g>
<g filter="url(#filter10_df_30_58)">
<mask id="path-32-outside-11_30_58" maskUnits="userSpaceOnUse" x="21" y="13" width="564" height="561" fill="black">
<rect fill="white" x="21" y="13" width="564" height="561"/>
<path d="M583 293.5C583 447.311 457.64 572 303 572C148.36 572 23 447.311 23 293.5C23 139.689 148.36 15 303 15C457.64 15 583 139.689 583 293.5ZM42.3319 293.5C42.3319 436.692 159.037 552.772 303 552.772C446.963 552.772 563.668 436.692 563.668 293.5C563.668 150.308 446.963 34.2283 303 34.2283C159.037 34.2283 42.3319 150.308 42.3319 293.5Z"/>
</mask>
<path d="M583 293.5C583 447.311 457.64 572 303 572C148.36 572 23 447.311 23 293.5C23 139.689 148.36 15 303 15C457.64 15 583 139.689 583 293.5ZM42.3319 293.5C42.3319 436.692 159.037 552.772 303 552.772C446.963 552.772 563.668 436.692 563.668 293.5C563.668 150.308 446.963 34.2283 303 34.2283C159.037 34.2283 42.3319 150.308 42.3319 293.5Z" fill="url(#paint0_linear_30_58)"/>
<path d="M583 293.5C583 447.311 457.64 572 303 572C148.36 572 23 447.311 23 293.5C23 139.689 148.36 15 303 15C457.64 15 583 139.689 583 293.5ZM42.3319 293.5C42.3319 436.692 159.037 552.772 303 552.772C446.963 552.772 563.668 436.692 563.668 293.5C563.668 150.308 446.963 34.2283 303 34.2283C159.037 34.2283 42.3319 150.308 42.3319 293.5Z" stroke="black" stroke-width="4" mask="url(#path-32-outside-11_30_58)"/>
</g>
<circle cx="303" cy="293" r="60" fill="#E2AB1C"/>
<circle cx="303" cy="293" r="60" fill="#E2AB1C"/>
<mask id="path-34-inside-12_30_58" fill="white">
<path d="M369 293C369 329.451 339.451 359 303 359C266.549 359 237 329.451 237 293C237 256.549 266.549 227 303 227C339.451 227 369 256.549 369 293ZM251.565 293C251.565 321.407 274.593 344.435 303 344.435C331.407 344.435 354.435 321.407 354.435 293C354.435 264.593 331.407 241.565 303 241.565C274.593 241.565 251.565 264.593 251.565 293Z"/>
</mask>
<path d="M369 293C369 329.451 339.451 359 303 359C266.549 359 237 329.451 237 293C237 256.549 266.549 227 303 227C339.451 227 369 256.549 369 293ZM251.565 293C251.565 321.407 274.593 344.435 303 344.435C331.407 344.435 354.435 321.407 354.435 293C354.435 264.593 331.407 241.565 303 241.565C274.593 241.565 251.565 264.593 251.565 293Z" fill="#E2AB1C"/>
<path d="M369 293C369 329.451 339.451 359 303 359C266.549 359 237 329.451 237 293C237 256.549 266.549 227 303 227C339.451 227 369 256.549 369 293ZM251.565 293C251.565 321.407 274.593 344.435 303 344.435C331.407 344.435 354.435 321.407 354.435 293C354.435 264.593 331.407 241.565 303 241.565C274.593 241.565 251.565 264.593 251.565 293Z" fill="black"/>
<path d="M369 293C369 329.451 339.451 359 303 359C266.549 359 237 329.451 237 293C237 256.549 266.549 227 303 227C339.451 227 369 256.549 369 293ZM251.565 293C251.565 321.407 274.593 344.435 303 344.435C331.407 344.435 354.435 321.407 354.435 293C354.435 264.593 331.407 241.565 303 241.565C274.593 241.565 251.565 264.593 251.565 293Z" stroke="#AF9C9C" stroke-width="2" mask="url(#path-34-inside-12_30_58)"/>
<path d="M320.691 295.053L320.672 295.195L320.784 295.283L325.924 299.323L325.924 299.323L325.93 299.327C326.306 299.605 326.417 300.102 326.167 300.563L321.259 309.049L321.259 309.049L321.256 309.055C321.013 309.501 320.509 309.666 320.056 309.504L313.949 307.051L313.816 306.997L313.703 307.085C312.467 308.044 311.106 308.85 309.62 309.454L309.487 309.509L309.467 309.651L308.546 316.145L308.546 316.145L308.546 316.15C308.485 316.634 308.084 316.979 307.592 316.979H297.773C297.294 316.979 296.901 316.644 296.792 316.137L295.873 309.651L295.853 309.509L295.72 309.454C294.235 308.851 292.899 308.044 291.635 307.084L291.522 306.998L291.39 307.051L285.288 309.502C284.821 309.646 284.322 309.492 284.083 309.055L284.083 309.055L284.08 309.049L279.174 300.565C279.173 300.565 279.173 300.564 279.173 300.563C278.949 300.155 279.057 299.602 279.415 299.323L279.415 299.323L284.606 295.283L284.723 295.192L284.699 295.045C284.574 294.295 284.523 293.466 284.523 292.683C284.523 291.91 284.623 291.081 284.75 290.32L284.774 290.173L284.657 290.082L279.466 286.042L279.466 286.042L279.456 286.035C279.065 285.76 278.971 285.244 279.223 284.804C279.223 284.804 279.223 284.804 279.223 284.804L284.106 276.315L284.106 276.315L284.109 276.31C284.352 275.865 284.856 275.699 285.309 275.862L291.416 278.315L291.547 278.367L291.66 278.282C292.899 277.346 294.261 276.515 295.745 275.911L295.879 275.857L295.899 275.714L296.819 269.223C296.903 268.724 297.291 268.387 297.773 268.387H307.592C308.081 268.387 308.489 268.73 308.572 269.223L309.492 275.714L309.512 275.857L309.645 275.911C311.13 276.515 312.466 277.321 313.731 278.282L313.843 278.368L313.975 278.315L320.077 275.864C320.544 275.719 321.044 275.874 321.282 276.31L321.282 276.31L321.285 276.316L326.192 284.8C326.192 284.801 326.192 284.802 326.193 284.802C326.416 285.211 326.309 285.763 325.95 286.042L325.95 286.042L320.76 290.082L320.642 290.173L320.667 290.32C320.792 291.07 320.842 291.874 320.842 292.683C320.842 293.516 320.792 294.298 320.691 295.053ZM293.228 292.683C293.228 297.883 297.482 302.138 302.683 302.138C307.883 302.138 312.137 297.883 312.137 292.683C312.137 287.482 307.883 283.228 302.683 283.228C297.482 283.228 293.228 287.482 293.228 292.683Z" fill="#F21212" stroke="black" stroke-width="0.5"/>
<circle cx="304" cy="24" r="7.5" fill="#07E21D" stroke="black"/>
<circle cx="456" cy="70" r="7.5" fill="#07E21D" stroke="black"/>
<circle cx="566" cy="233" r="7.5" fill="#07E21D" stroke="black"/>
<circle cx="565" cy="359" r="7.5" fill="#07E21D" stroke="black"/>
<circle cx="464" cy="510" r="7.5" fill="#07E21D" stroke="black"/>
<circle cx="295" cy="562" r="7.5" fill="#07E21D" stroke="black"/>
<circle cx="135" cy="505" r="7.5" fill="#07E21D" stroke="black"/>
<circle cx="54" cy="389" r="7.5" fill="#07E21D" stroke="black"/>
<circle cx="43" cy="214" r="7.5" fill="#07E21D" stroke="black"/>
<circle cx="134" cy="84" r="7.5" fill="#07E21D" stroke="black"/>
<circle cx="303" cy="234" r="4.5" fill="white" stroke="#787575"/>
<circle cx="339" cy="247" r="4.5" fill="white" stroke="#787575"/>
<circle cx="359" cy="277" r="4.5" fill="white" stroke="#787575"/>
<circle cx="359" cy="311" r="4.5" fill="white" stroke="#787575"/>
<circle cx="338" cy="340" r="4.5" fill="white" stroke="#787575"/>
<circle cx="303" cy="352" r="4.5" fill="white" stroke="#787575"/>
<circle cx="272" cy="343" r="4.5" fill="white" stroke="#787575"/>
<circle cx="250" cy="318" r="4.5" fill="white" stroke="#787575"/>
<circle cx="246" cy="278" r="4.5" fill="white" stroke="#787575"/>
<circle cx="266" cy="247" r="4.5" fill="white" stroke="#787575"/>
<defs>
<filter id="filter0_d_30_58" x="449.403" y="234.837" width="51.45" height="36.6363" filterUnits="userSpaceOnUse" color-interpolation-filters="sRGB">
<feFlood flood-opacity="0" result="BackgroundImageFix"/>
<feColorMatrix in="SourceAlpha" type="matrix" values="0 0 0 0 0 0 0 0 0 0 0 0 0 0 0 0 0 0 127 0" result="hardAlpha"/>
<feOffset dy="4"/>
<feGaussianBlur stdDeviation="2"/>
<feComposite in2="hardAlpha" operator="out"/>
<feColorMatrix type="matrix" values="0 0 0 0 0 0 0 0 0 0 0 0 0 0 0 0 0 0 0.45 0"/>
<feBlend mode="normal" in2="BackgroundImageFix" result="effect1_dropShadow_30_58"/>
<feBlend mode="normal" in="SourceGraphic" in2="effect1_dropShadow_30_58" result="shape"/>
</filter>
<filter id="filter1_d_30_58" x="384.882" y="125.314" width="55.5417" height="57.7733" filterUnits="userSpaceOnUse" color-interpolation-filters="sRGB">
<feFlood flood-opacity="0" result="BackgroundImageFix"/>
<feColorMatrix in="SourceAlpha" type="matrix" values="0 0 0 0 0 0 0 0 0 0 0 0 0 0 0 0 0 0 127 0" result="hardAlpha"/>
<feOffset dy="4"/>
<feGaussianBlur stdDeviation="2"/>
<feComposite in2="hardAlpha" operator="out"/>
<feColorMatrix type="matrix" values="0 0 0 0 0 0 0 0 0 0 0 0 0 0 0 0 0 0 0.45 0"/>
<feBlend mode="normal" in2="BackgroundImageFix" result="effect1_dropShadow_30_58"/>
<feBlend mode="normal" in="SourceGraphic" in2="effect1_dropShadow_30_58" result="shape"/>
</filter>
<filter id="filter2_d_30_58" x="285.713" y="101.642" width="41.7822" height="51.4138" filterUnits="userSpaceOnUse" color-interpolation-filters="sRGB">
<feFlood flood-opacity="0" result="BackgroundImageFix"/>
<feColorMatrix in="SourceAlpha" type="matrix" values="0 0 0 0 0 0 0 0 0 0 0 0 0 0 0 0 0 0 127 0" result="hardAlpha"/>
<feOffset dy="4"/>
<feGaussianBlur stdDeviation="2"/>
<feComposite in2="hardAlpha" operator="out"/>
<feColorMatrix type="matrix" values="0 0 0 0 0 0 0 0 0 0 0 0 0 0 0 0 0 0 0.45 0"/>
<feBlend mode="normal" in2="BackgroundImageFix" result="effect1_dropShadow_30_58"/>
<feBlend mode="normal" in="SourceGraphic" in2="effect1_dropShadow_30_58" result="shape"/>
</filter>
<filter id="filter3_d_30_58" x="178.931" y="119.3" width="56.9551" height="59.1495" filterUnits="userSpaceOnUse" color-interpolation-filters="sRGB">
<feFlood flood-opacity="0" result="BackgroundImageFix"/>
<feColorMatrix in="SourceAlpha" type="matrix" values="0 0 0 0 0 0 0 0 0 0 0 0 0 0 0 0 0 0 127 0" result="hardAlpha"/>
<feOffset dy="4"/>
<feGaussianBlur stdDeviation="2"/>
<feComposite in2="hardAlpha" operator="out"/>
<feColorMatrix type="matrix" values="0 0 0 0 0 0 0 0 0 0 0 0 0 0 0 0 0 0 0.45 0"/>
<feBlend mode="normal" in2="BackgroundImageFix" result="effect1_dropShadow_30_58"/>
<feBlend mode="normal" in="SourceGraphic" in2="effect1_dropShadow_30_58" result="shape"/>
</filter>
<filter id="filter4_d_30_58" x="106.995" y="224.034" width="55.6174" height="48.4462" filterUnits="userSpaceOnUse" color-interpolation-filters="sRGB">
<feFlood flood-opacity="0" result="BackgroundImageFix"/>
<feColorMatrix in="SourceAlpha" type="matrix" values="0 0 0 0 0 0 0 0 0 0 0 0 0 0 0 0 0 0 127 0" result="hardAlpha"/>
<feOffset dy="4"/>
<feGaussianBlur stdDeviation="2"/>
<feComposite in2="hardAlpha" operator="out"/>
<feColorMatrix type="matrix" values="0 0 0 0 0 0 0 0 0 0 0 0 0 0 0 0 0 0 0.45 0"/>
<feBlend mode="normal" in2="BackgroundImageFix" result="effect1_dropShadow_30_58"/>
<feBlend mode="normal" in="SourceGraphic" in2="effect1_dropShadow_30_58" result="shape"/>
</filter>
<filter id="filter5_d_30_58" x="457.125" y="328.577" width="58.5432" height="53.5392" filterUnits="userSpaceOnUse" color-interpolation-filters="sRGB">
<feFlood flood-opacity="0" result="BackgroundImageFix"/>
<feColorMatrix in="SourceAlpha" type="matrix" values="0 0 0 0 0 0 0 0 0 0 0 0 0 0 0 0 0 0 127 0" result="hardAlpha"/>
<feOffset dy="4"/>
<feGaussianBlur stdDeviation="2"/>
<feComposite in2="hardAlpha" operator="out"/>
<feColorMatrix type="matrix" values="0 0 0 0 0 0 0 0 0 0 0 0 0 0 0 0 0 0 0.45 0"/>
<feBlend mode="normal" in2="BackgroundImageFix" result="effect1_dropShadow_30_58"/>
<feBlend mode="normal" in="SourceGraphic" in2="effect1_dropShadow_30_58" result="shape"/>
</filter>
<filter id="filter6_d_30_58" x="106.869" y="326.513" width="54.9131" height="47.2256" filterUnits="userSpaceOnUse" color-interpolation-filters="sRGB">
<feFlood flood-opacity="0" result="BackgroundImageFix"/>
<feColorMatrix in="SourceAlpha" type="matrix" values="0 0 0 0 0 0 0 0 0 0 0 0 0 0 0 0 0 0 127 0" result="hardAlpha"/>
<feOffset dy="4"/>
<feGaussianBlur stdDeviation="2"/>
<feComposite in2="hardAlpha" operator="out"/>
<feColorMatrix type="matrix" values="0 0 0 0 0 0 0 0 0 0 0 0 0 0 0 0 0 0 0.45 0"/>
<feBlend mode="normal" in2="BackgroundImageFix" result="effect1_dropShadow_30_58"/>
<feBlend mode="normal" in="SourceGraphic" in2="effect1_dropShadow_30_58" result="shape"/>
</filter>
<filter id="filter7_d_30_58" x="173.925" y="406.967" width="55.8215" height="56.3853" filterUnits="userSpaceOnUse" color-interpolation-filters="sRGB">
<feFlood flood-opacity="0" result="BackgroundImageFix"/>
<feColorMatrix in="SourceAlpha" type="matrix" values="0 0 0 0 0 0 0 0 0 0 0 0 0 0 0 0 0 0 127 0" result="hardAlpha"/>
<feOffset dy="4"/>
<feGaussianBlur stdDeviation="2"/>
<feComposite in2="hardAlpha" operator="out"/>
<feColorMatrix type="matrix" values="0 0 0 0 0 0 0 0 0 0 0 0 0 0 0 0 0 0 0.45 0"/>
<feBlend mode="normal" in2="BackgroundImageFix" result="effect1_dropShadow_30_58"/>
<feBlend mode="normal" in="SourceGraphic" in2="effect1_dropShadow_30_58" result="shape"/>
</filter>
<filter id="filter8_d_30_58" x="283.43" y="449.99" width="40.7236" height="50.3535" filterUnits="userSpaceOnUse" color-interpolation-filters="sRGB">
<feFlood flood-opacity="0" result="BackgroundImageFix"/>
<feColorMatrix in="SourceAlpha" type="matrix" values="0 0 0 0 0 0 0 0 0 0 0 0 0 0 0 0 0 0 127 0" result="hardAlpha"/>
<feOffset dy="4"/>
<feGaussianBlur stdDeviation="2"/>
<feComposite in2="hardAlpha" operator="out"/>
<feColorMatrix type="matrix" values="0 0 0 0 0 0 0 0 0 0 0 0 0 0 0 0 0 0 0.45 0"/>
<feBlend mode="normal" in2="BackgroundImageFix" result="effect1_dropShadow_30_58"/>
<feBlend mode="normal" in="SourceGraphic" in2="effect1_dropShadow_30_58" result="shape"/>
</filter>
<filter id="filter9_d_30_58" x="378.059" y="418.363" width="54.937" height="58.9389" filterUnits="userSpaceOnUse" color-interpolation-filters="sRGB">
<feFlood flood-opacity="0" result="BackgroundImageFix"/>
<feColorMatrix in="SourceAlpha" type="matrix" values="0 0 0 0 0 0 0 0 0 0 0 0 0 0 0 0 0 0 127 0" result="hardAlpha"/>
<feOffset dy="4"/>
<feGaussianBlur stdDeviation="2"/>
<feComposite in2="hardAlpha" operator="out"/>
<feColorMatrix type="matrix" values="0 0 0 0 0 0 0 0 0 0 0 0 0 0 0 0 0 0 0.45 0"/>
<feBlend mode="normal" in2="BackgroundImageFix" result="effect1_dropShadow_30_58"/>
<feBlend mode="normal" in="SourceGraphic" in2="effect1_dropShadow_30_58" result="shape"/>
</filter>
<filter id="filter10_df_30_58" x="17" y="11" width="572" height="571" filterUnits="userSpaceOnUse" color-interpolation-filters="sRGB">
<feFlood flood-opacity="0" result="BackgroundImageFix"/>
<feColorMatrix in="SourceAlpha" type="matrix" values="0 0 0 0 0 0 0 0 0 0 0 0 0 0 0 0 0 0 127 0" result="hardAlpha"/>
<feOffset dy="4"/>
<feGaussianBlur stdDeviation="2"/>
<feComposite in2="hardAlpha" operator="out"/>
<feColorMatrix type="matrix" values="0 0 0 0 0 0 0 0 0 0 0 0 0 0 0 0 0 0 0.25 0"/>
<feBlend mode="normal" in2="BackgroundImageFix" result="effect1_dropShadow_30_58"/>
<feBlend mode="normal" in="SourceGraphic" in2="effect1_dropShadow_30_58" result="shape"/>
<feGaussianBlur stdDeviation="1" result="effect2_foregroundBlur_30_58"/>
</filter>
<linearGradient id="paint0_linear_30_58" x1="303" y1="15" x2="303" y2="572" gradientUnits="userSpaceOnUse">
<stop stop-color="#F8C204"/>
<stop offset="1" stop-color="#FF6F00"/>
</linearGradient>
</defs>
</svg>
